<svg width="2480" height="301" fill="none" xmlns="http://www.w3.org/2000/svg"><path fill="#fff" d="M0 0h2480v301H0z"/><path d="M1728.31 269.72a32.29 32.29 0 0 1-42.77-2.43l-21.46-21.3a25.314 25.314 0 0 0-17.81-7.34h21.79a47.995 47.995 0 0 1 27.11 8.4l33.14 22.67z" fill="#fff" stroke="#E8EAED" stroke-width="2" stroke-linecap="round" stroke-linejoin="round"/><path d="M1740.82 270.93a27.924 27.924 0 0 1-9.1 6.253 27.848 27.848 0 0 1-10.81 2.23c-3.71.015-7.39-.714-10.83-2.143a27.895 27.895 0 0 1-9.14-6.18l-25.24-25.67a26.603 26.603 0 0 0-8.7-5.912 26.591 26.591 0 0 0-10.3-2.088h23.35c10.35 0 20.42 3.346 28.72 9.54l32 23.93.05.04z" fill="#fff" stroke="#E8EAED" stroke-width="2" stroke-linecap="round" stroke-linejoin="round"/><path d="M1756.19 274.8a26.631 26.631 0 0 1-8.66 6.311 26.682 26.682 0 0 1-10.43 2.403c-3.61.088-7.2-.555-10.55-1.891a26.747 26.747 0 0 1-8.95-5.883L1689.75 248a29.413 29.413 0 0 0-20.79-8.6h26a47.992 47.992 0 0 1 29.93 10.48l31.27 24.94.03-.02z" fill="#fff" stroke="#E8EAED" stroke-width="2" stroke-linecap="round" stroke-linejoin="round"/><path d="M1767.65 272.65a20.197 20.197 0 0 1-5.77 8.091 20.237 20.237 0 0 1-18.85 3.979 20.248 20.248 0 0 1-8.54-5.07l-31.6-31.65a30.323 30.323 0 0 0-21.43-8.87h27.36c10.87 0 21.41 3.688 29.91 10.46l28.91 23 .01.06z" fill="#fff" stroke="#E8EAED" stroke-width="2" stroke-linecap="round" stroke-linejoin="round"/><path d="M1792.82 276.21a29.64 29.64 0 0 1-9.41 8.758 29.622 29.622 0 0 1-12.23 3.943c-4.32.403-8.67-.148-12.76-1.614a29.543 29.543 0 0 1-10.86-6.867L1714.95 248a31 31 0 0 0-21.88-9h30.25a48.001 48.001 0 0 1 27 8.32l42.5 28.89z" fill="#fff" stroke="#E8EAED" stroke-width="2" stroke-linecap="round" stroke-linejoin="round"/><path d="M1804.23 279a26.295 26.295 0 0 1-18.96 11.757c-3.83.45-7.71.051-11.36-1.167a26.233 26.233 0 0 1-9.8-5.88l-37.44-35.51a33.698 33.698 0 0 0-23.17-9.24h31.26a48.069 48.069 0 0 1 28.77 9.57l40.7 30.47z" fill="#fff" stroke="#E8EAED" stroke-width="2" stroke-linecap="round" stroke-linejoin="round"/><path d="M1818.92 281a25.52 25.52 0 0 1-7.78 8.447 25.47 25.47 0 0 1-22.16 3.195 25.43 25.43 0 0 1-9.85-5.902l-34.74-33.51a47.555 47.555 0 0 0-33-13.32h38.52a48.003 48.003 0 0 1 29.59 10.21l39.42 30.88z" fill="#fff" stroke="#E8EAED" stroke-width="2" stroke-linecap="round" stroke-linejoin="round"/><path d="M1829.5 283.23a21.552 21.552 0 0 1-6.48 7.467 21.59 21.59 0 0 1-18.98 3.144 21.561 21.561 0 0 1-8.54-4.981l-38.22-36.21a46.494 46.494 0 0 0-32-12.73h37.26c11.77 0 23.14 4.328 31.93 12.16l35 31.15h.03z" fill="#fff" stroke="#E8EAED" stroke-width="2" stroke-linecap="round" stroke-linejoin="round"/><path d="M1851.42 282.56a26.491 26.491 0 0 1-19.02 13.923c-4.03.694-8.17.444-12.09-.729a26.472 26.472 0 0 1-10.49-6.034l-38.87-36.54a50.43 50.43 0 0 0-34.53-13.69h45.16a48.01 48.01 0 0 1 30.36 10.82l39.48 32.25z" fill="#fff" stroke="#E8EAED" stroke-width="2" stroke-linecap="round" stroke-linejoin="round"/><path d="M1878.09 284.31a38.778 38.778 0 0 1-55.91 3.82l-34.95-31.89a63.46 63.46 0 0 0-42.78-16.59h53.37a48.013 48.013 0 0 1 27 8.34l53.27 36.32z" fill="#fff" stroke="#E8EAED" stroke-width="2" stroke-linecap="round" stroke-linejoin="round"/><path d="M1902.06 285.23c-17.87 18.44-49.22 18.15-68 .59l-30-28.1a67.06 67.06 0 0 0-45.88-18.14h56.34a47.985 47.985 0 0 1 25.37 7.25l62.09 38.4h.08zM1418.16 241.93a19.283 19.283 0 0 1-6.75 5.705 19.224 19.224 0 0 1-8.59 2.085 19.318 19.318 0 0 1-15.43-7.63l-20.27-24.73a17.363 17.363 0 0 0-6.11-5.049 17.314 17.314 0 0 0-7.71-1.811h10.89c12.46 0 24.43 2.85 33.38 11.51l20.62 20-.03-.08z" fill="#fff" stroke="#E8EAED" stroke-width="2" stroke-linecap="round" stroke-linejoin="round"/><path d="M1434.57 249.88a18.638 18.638 0 0 1-14.83 7.936 18.61 18.61 0 0 1-15.17-7.246l-22.2-26.68a19.11 19.11 0 0 0-15.14-7.43h12.69c13 0 25.46 3.28 34.5 12.63l20.11 20.79h.04z" fill="#fff" stroke="#E8EAED" stroke-width="2" stroke-linecap="round" stroke-linejoin="round"/><path d="M1446.82 252a15.489 15.489 0 0 1-4.5 7.07 15.47 15.47 0 0 1-7.52 3.693c-2.8.517-5.69.252-8.35-.764a15.53 15.53 0 0 1-6.72-4.999l-23.81-30.83c-3.73-4.83-9.49-5.66-15.6-5.66l13.73-2c6.43 0 12.8 1.294 18.72 3.804a47.976 47.976 0 0 1 15.76 10.806l18.29 18.88z" fill="#fff" stroke="#E8EAED" stroke-width="2" stroke-linecap="round" stroke-linejoin="round"/><path d="M1468.18 255.72a21.359 21.359 0 0 1-7.09 7.818 21.328 21.328 0 0 1-9.96 3.474c-3.56.308-7.14-.282-10.41-1.715a21.398 21.398 0 0 1-8.32-6.487l-25.2-32.5a20.122 20.122 0 0 0-15.93-7.8h16.55a48.003 48.003 0 0 1 31.76 12l28.56 25.2.04.01z" fill="#fff" stroke="#E8EAED" stroke-width="2" stroke-linecap="round" stroke-linejoin="round"/><path d="M1481.98 262.5a19.133 19.133 0 0 1-32 3.48l-28.86-35.48a21.755 21.755 0 0 0-16.9-8h17a48.001 48.001 0 0 1 33.46 13.5l27.3 26.49v.01z" fill="#fff" stroke="#E8EAED" stroke-width="2" stroke-linecap="round" stroke-linejoin="round"/><path d="M1496.59 266.54a18.8 18.8 0 0 1-14.78 11.101c-3.21.422-6.48.009-9.48-1.2a18.769 18.769 0 0 1-7.67-5.701l-26.75-33.44a31.516 31.516 0 0 0-24.64-11.84h22.76a47.915 47.915 0 0 1 18.54 3.72 47.906 47.906 0 0 1 15.66 10.6l26.36 26.76z" fill="#fff" stroke="#E8EAED" stroke-width="2" stroke-linecap="round" stroke-linejoin="round"/><path d="M1506.99 269.77a16.112 16.112 0 0 1-27.44 4.12l-28.84-35.41a32.865 32.865 0 0 0-11.37-8.861 32.86 32.86 0 0 0-14.07-3.139h22.29a47.965 47.965 0 0 1 19.92 4.319A47.988 47.988 0 0 1 1483.82 243l23.15 26.72.02.05z" fill="#fff" stroke="#E8EAED" stroke-width="2" stroke-linecap="round" stroke-linejoin="round"/><path d="M1527.01 270.56a19.771 19.771 0 0 1-6.06 8.147 19.79 19.79 0 0 1-19.39 3.005 19.748 19.748 0 0 1-8.24-5.932l-29-35.39a35.394 35.394 0 0 0-27.34-12.93h28.67a48 48 0 0 1 34.89 15l26.5 28.06-.03.04z" fill="#fff" stroke="#E8EAED" stroke-width="2" stroke-linecap="round" stroke-linejoin="round"/><path d="M1564.27 273.89a38.31 38.31 0 0 1-13.42 11.04 38.295 38.295 0 0 1-33.85.05 38.246 38.246 0 0 1-13.45-11l-21.13-27.42a49.034 49.034 0 0 0-17.19-14.069 49.011 49.011 0 0 0-21.64-5.031h43a48 48 0 0 1 28.88 9.67l48.79 36.76h.01z" fill="#fff" stroke="#E8EAED" stroke-width="2" stroke-linecap="round" stroke-linejoin="round"/><path d="M1569.07 276.309a27.402 27.402 0 0 1-9.13 8.785 27.38 27.38 0 0 1-12.12 3.73 27.37 27.37 0 0 1-22.69-9.645l-27-31.92a43.976 43.976 0 0 0-15.09-11.518 43.978 43.978 0 0 0-18.53-4.092h35.84c11.7-.007 23 4.26 31.78 12l36.92 32.63.02.03zM1067.62 239.23c-12.82 10.12-31.18 10.08-42.77-1.43l-21.47-22.31a25.268 25.268 0 0 0-17.801-7.34h21.781a48.071 48.071 0 0 1 27.12 8.39l33.14 22.69z" fill="#fff" stroke="#E8EAED" stroke-width="2" stroke-linecap="round" stroke-linejoin="round"/><path d="M1078.11 240.43c-10.88 11.25-28.9 12.33-39.88 1.16L1013 214.92a26.746 26.746 0 0 0-8.7-5.909 26.676 26.676 0 0 0-10.301-2.091h23.351c10.35 0 20.42 3.346 28.72 9.54l32 23.93.04.04z" fill="#fff" stroke="#E8EAED" stroke-width="2" stroke-linecap="round" stroke-linejoin="round"/><path d="M1093.5 245.3a26.66 26.66 0 0 1-8.66 6.311 26.682 26.682 0 0 1-10.43 2.403c-3.61.088-7.2-.556-10.55-1.892a26.744 26.744 0 0 1-8.95-5.882l-27.85-27.77a29.463 29.463 0 0 0-20.79-8.59h26a47.932 47.932 0 0 1 29.93 10.48l31.28 24.94h.02z" fill="#fff" stroke="#E8EAED" stroke-width="2" stroke-linecap="round" stroke-linejoin="round"/><path d="M1103.96 242.15c-5.32 13.59-22.83 17.26-33.16 8l-31.61-31.58a27.658 27.658 0 0 0-9.58-7.32 27.595 27.595 0 0 0-11.79-2.53h27.36c10.87 0 21.41 3.688 29.91 10.46l28.92 23-.05-.03z" fill="#fff" stroke="#E8EAED" stroke-width="2" stroke-linecap="round" stroke-linejoin="round"/><path d="M1129.07 245.72a30.426 30.426 0 0 1-21.45 12.801 30.37 30.37 0 0 1-12.71-1.234 30.332 30.332 0 0 1-11.09-6.347l-32.57-32.41a28.282 28.282 0 0 0-21.87-10h30.25a48.001 48.001 0 0 1 27 8.32l42.43 28.87h.01z" fill="#fff" stroke="#E8EAED" stroke-width="2" stroke-linecap="round" stroke-linejoin="round"/><path d="M1141.53 249.54a26.21 26.21 0 0 1-8.17 7.989 26.216 26.216 0 0 1-10.78 3.767c-3.83.45-7.71.051-11.37-1.166-3.65-1.218-7-3.226-9.79-5.881l-37.45-35.53a33.65 33.65 0 0 0-23.15-9.24h31.27c10.37 0 20.46 3.358 28.76 9.57l40.7 30.471-.02.02z" fill="#fff" stroke="#E8EAED" stroke-width="2" stroke-linecap="round" stroke-linejoin="round"/><path d="M1156.23 251.46a25.516 25.516 0 0 1-7.78 8.449 25.493 25.493 0 0 1-10.71 4.167c-3.84.555-7.75.224-11.44-.966a25.366 25.366 0 0 1-9.86-5.9l-34.74-33.49a47.56 47.56 0 0 0-33-13.32h38.51a48.006 48.006 0 0 1 29.6 10.21l39.42 30.85z" fill="#fff" stroke="#E8EAED" stroke-width="2" stroke-linecap="round" stroke-linejoin="round"/><path d="M1166.82 252.72c-6.66 12.67-23.58 15.47-34 6.62l-38.23-36.2a43.34 43.34 0 0 0-32-13.73h37.23a47.992 47.992 0 0 1 32 12.16l35 31.15z" fill="#fff" stroke="#E8EAED" stroke-width="2" stroke-linecap="round" stroke-linejoin="round"/><path d="M1188.73 252.05c-8.07 15.62-28.84 20.18-41.65 8.14l-38.86-37.54a50.356 50.356 0 0 0-34.54-13.65h45.14a48.01 48.01 0 0 1 30.36 10.82l39.53 32.27.02-.04z" fill="#fff" stroke="#E8EAED" stroke-width="2" stroke-linecap="round" stroke-linejoin="round"/><path d="M1217.4 253.8c-15.41 18.49-38.33 19.87-55.92 3.82l-34.94-31.9a63.46 63.46 0 0 0-42.78-16.59h53.33a48.013 48.013 0 0 1 27 8.34l53.27 36.31.04.02z" fill="#fff" stroke="#E8EAED" stroke-width="2" stroke-linecap="round" stroke-linejoin="round"/><path d="M1228.36 253.72c-17.86 18.44-34.21 19.14-52.94 1.58l-30-28.09a67.09 67.09 0 0 0-45.89-18.15h56.35a48.067 48.067 0 0 1 25.36 7.25l47.09 37.41h.03zM717.27 265.07a14.738 14.738 0 0 1-26.19.11l-14.46-27.66a9.411 9.411 0 0 0-8.35-5.06h10.61a26.5 26.5 0 0 1 20.84 10.16l17.55 22.45z" fill="#fff" stroke="#E8EAED" stroke-width="2" stroke-linecap="round" stroke-linejoin="round"/><path d="M728.27 267.19a15.36 15.36 0 0 1-27.26.12l-15-28.59a9.802 9.802 0 0 0-8.71-5.26h11A27.612 27.612 0 0 1 710.03 244l18.24 23.18v.01z" fill="#fff" stroke="#E8EAED" stroke-width="2" stroke-linecap="round" stroke-linejoin="round"/><path d="M747.27 269.9a21.907 21.907 0 0 1-19.655 9.322A21.903 21.903 0 0 1 709.62 267l-12.8-26.35a12.773 12.773 0 0 0-11.51-7.19h12a34.543 34.543 0 0 1 24.73 10.44l25.29 26h-.06z" fill="#fff" stroke="#E8EAED" stroke-width="2" stroke-linecap="round" stroke-linejoin="round"/><path d="M762.269 271.53a24.867 24.867 0 0 1-33.949 5.331 24.873 24.873 0 0 1-8.151-9.491l-13-26.48a13.29 13.29 0 0 0-11.92-7.43h12.57a37.561 37.561 0 0 1 26.19 10.63l28.26 27.44z" fill="#fff" stroke="#E8EAED" stroke-width="2" stroke-linecap="round" stroke-linejoin="round"/><path d="M775.27 272.889a25.787 25.787 0 0 1-23.092 9.903 25.79 25.79 0 0 1-20.558-14.443l-12.72-26.35a15.15 15.15 0 0 0-13.63-8.56h13.11a39.532 39.532 0 0 1 27.409 11l29.481 28.38v.07z" fill="#fff" stroke="#E8EAED" stroke-width="2" stroke-linecap="round" stroke-linejoin="round"/><path d="M785.27 272.89a23.996 23.996 0 0 1-21.697 11.523 24.007 24.007 0 0 1-12.103-3.979 24.007 24.007 0 0 1-8.361-9.614l-13.099-27.43a17.447 17.447 0 0 0-6.434-7.242 17.437 17.437 0 0 0-9.306-2.688h14.11a39.532 39.532 0 0 1 27.409 11l29.481 28.38v.05z" fill="#fff" stroke="#E8EAED" stroke-width="2" stroke-linecap="round" stroke-linejoin="round"/><path d="M798.269 273.88a24.999 24.999 0 0 1-43.77-2.29l-13-27.13c-4.26-7.71-9.15-11-15.26-11h13.46a40.789 40.789 0 0 1 28.23 11.35l30.31 29.07h.03z" fill="#fff" stroke="#E8EAED" stroke-width="2" stroke-linecap="round" stroke-linejoin="round"/><path d="M810.819 277.34a25.988 25.988 0 0 1-23.353 10.21 25.999 25.999 0 0 1-20.857-14.65l-13-27.26a21.44 21.44 0 0 0-19.33-12.18h17.07a42.51 42.51 0 0 1 29.39 11.8l31.54 30.2-1.46 1.88z" fill="#fff" stroke="#E8EAED" stroke-width="2" stroke-linecap="round" stroke-linejoin="round"/><path d="M822.269 275.46c-10.79 18-37.39 16.21-45.71-3l-11.53-26.66a22.054 22.054 0 0 0-20.21-13.34h13.26a48 48 0 0 1 33.17 13.26l31.07 29.7-.05.04z" fill="#fff" stroke="#E8EAED" stroke-width="2" stroke-linecap="round" stroke-linejoin="round"/><path d="M834.27 275.46c-10.79 18-37.39 16.21-45.71-3l-12.13-28a19.774 19.774 0 0 0-18.16-11.93h11.76a48.005 48.005 0 0 1 33.17 13.3l31.07 29.7v-.07z" fill="#fff" stroke="#E8EAED" stroke-width="2" stroke-linecap="round" stroke-linejoin="round"/><path d="M2479.82 0v259.6l-288.74.15c-131.12 0-135.55 40.43-262.48 40.43-74.42 0-74.28-19-103.49-35.14-.86-.48-1.76-1-2.68-1.43-1.86-.96-3.84-1.903-5.95-2.83-1.13-.5-2.24-1-3.31-1.42l-2.15-.87c-19.4-7.8-30.45-6.52-37.41-6.25-26.61 1-50.71 27.59-105.34 36.8-28.44 4.79-65.22 3.78-84 2.92-14.92-.7-25.87-4.51-34.79-9.88-.28-.16-.55-.33-.82-.51-.87-.52-1.72-1.08-2.55-1.65-.83-.57-1.74-1.22-2.59-1.86l-2.12-1.63c-1.08-.85-2.13-1.73-3.16-2.63l-.88-.77-.87-.78-.59-.55-1.67-1.55-2.07-2c-.38-.36-.75-.73-1.12-1.1l-.27-.27-.21-.21-1.52-1.52-.48-.48-1.49-1.51-.84-.85-.4-.42-.85-.87c-.48-.5-1-1-1.46-1.48l-.78-.78-.09-.1c-.39-.4-.76-.78-1.16-1.17-.4-.39-.87-.87-1.31-1.29-.44-.42-.9-.88-1.36-1.3-.45-.43-.9-.85-1.36-1.26-.46-.41-.83-.75-1.25-1.11l-.67-.58-1.6-1.37c-.66-.55-1.32-1.09-2-1.62-1.08-.87-2.18-1.71-3.3-2.54l-.29-.21c-.25-.19-.5-.38-.76-.56l-.24-.16c-.35-.24-.7-.48-1.06-.7l-.1-.07c-.79-.52-1.6-1-2.42-1.52l-1-.58c-9.43-5.43-21.15-9-37.34-8.93-16.37.08-35 2.2-69 15.5-11.62 4.54-55.8 22.11-101.5 26-27.77 2.4-51.86 2.36-78.87-9.44-.82-.35-1.66-.73-2.49-1.11-.65-.3-1.3-.61-1.94-.93l-.11-.05a161.96 161.96 0 0 1-18-10.16l-2.69-1.77c-1.79-1.2-3.61-2.46-5.44-3.77-1.13-.78-2.22-1.65-3.29-2.55l-.17-.15-.73-.62c-.25-.22-.5-.43-.75-.66-.8-.7-1.6-1.42-2.39-2.17l-.31-.29c-1-.91-2-1.85-3-2.81-.69-.66-1.41-1.35-2.16-2-.34-.33-.69-.65-1-1-.31-.35-.56-.49-1-.83-1.73-1.42-4.76-3.77-5.78-4.57v.11c-17.19-12.35-45.17-22.49-99-15.68-80 10.13-119.63 74-226.86 74-17 0-27.8-4.31-36-13.24a52.077 52.077 0 0 1-6-7.94 82.261 82.261 0 0 1-4.18-7.66c-.81-1.65-1.61-3.37-2.38-5.16-.37-.86-.76-1.7-1.17-2.53a40.072 40.072 0 0 0-3-5.3c-.28-.43-.57-.86-.88-1.28-.07-.3-.15-.6-.23-.9l-.72-.91c-9.11-11-25.3-14.75-60.27 3.62-52.92 27.81-116.54 52.72-163.5 52.72-28.57 0-50.87-3.26-68.53-7.63h-.05c-1.87-.46-3.7-.93-5.47-1.42l-1.08-.31-.32-.09h-.35c-1.78-.49-3.51-1-5.18-1.51l-1.67-.51-2-.68-.64-.22-6.36-2.17-1.41-.48c-.8-.3-1.57-.59-2.35-.9l-.34-.13-2.71-1-2.15-.83-.87-.34c-1.3-.52-2.54-1-3.77-1.57l-2.12-.9-.67-.28-3-1.29-1.93-.83-.57-.23-3.4-1.29c-1.06-.39-2.31-.84-3.72-1.33l-2.39-.82-3.72-1.21a175.821 175.821 0 0 0-29.5-6.87c-31.48-4-68.62-4.77-117.8-4.82-127.74 0-286.08.18-286.55 0V0h2479.82z" fill="#F8F9FA"/><path d="M1824.25 264.559c-.41-.22-21.15-11.92-42.11-12.37-10.66-.23-23 1-41.32 11.83-29.91 17.74-60.94 24.54-77.9 26.91-25.36 3.55-60.14 3.18-78.64 1-14.85-1.72-25.88-4.52-34.81-9.89-1.16-.69-2.28-1.41-3.37-2.16a81.776 81.776 0 0 1-7.9-6.14c-.59-.51-1.18-1-1.75-1.55-1.48-1.34-2.92-2.71-4.34-4.1-.47-.45-.93-.91-1.39-1.37-.75-.73-1.48-1.48-2.22-2.22l-1.49-1.51-1.25-1.27c-1-1.06-2.07-2.12-3.12-3.15l-.09-.1c-.39-.4-.77-.79-1.17-1.17a167.063 167.063 0 0 0-4-3.87c-.41-.38-.83-.75-1.25-1.11-2-1.78-4.07-3.48-6.21-5.1-.45-.34-.9-.68-1.36-1-.46-.32-.7-.52-1.06-.78-.43-.63-.86-1.24-1.22-1.71l-.37-.45-.24-.29c-.28-.34-.56-.67-.85-1a50.096 50.096 0 0 0-2.46-2.7c-.31-.34-.64-.66-1-1-.85-.84-1.71-1.65-2.6-2.44-.14-.13-.53-.59-.85-1-.2-.22-.37-.41-.45-.48l.94.46.67.33 7.21-.51c20.91-2.41 28.25-11.22 44.35-11.41 1.47-.018 2.93.039 4.39.17h.46c.65 0 1.3.12 1.95.2h.19c.69-.25 1.38-.49 2.08-.71l.17-.05a56.327 56.327 0 0 1 17-2.67c1.77-.008 3.54.3 5.2.91l.81.27.46-.13c6.13-1.74 15.32-3.25 21.54-3.05 2.27.08 3.19.43 6.78.91h.3l1.18-.26a111.819 111.819 0 0 1 18.14-1.69c1.4.05 2.79.234 4.15.55h.2l1.09-.14c7.19-.94 15.57-2.63 31.29-.41h.32l.86.13c7.87-.67 27.94-2.54 38.82 1.53l.69.28 1.21.06 8.63.39c6.28.3 10.41.84 16 3.44.24.11.45.23.7.35l1.38.11c12.68 1.11 22.5 4.51 27.75 8.57.12.08.23.17.34.26.37.08-.26.16.1.24a43.998 43.998 0 0 1 15.22 6.75c7.76 1.8 15.3 5.92 17.69 8.51 4 .73 14.36 5.81 19.3 10.08 2.07 1.88 5.64 4.74 7.23 6.72z" fill="#F8F9FA"/><path d="m1507.2 245.279-1.16-.78c-10-6.58-22.55-11.14-40.76-11-16.37.08-35 2.2-69 15.5-11.62 4.54-55.8 22.11-101.5 26-27.78 2.4-51.88 2.36-78.89-9.45-.82-.35-1.66-.73-2.49-1.11l-2.06-1a161.323 161.323 0 0 1-18-10.16c-.49-.31-1-.63-1.45-1l-1.25-.83c-1.79-1.2-3.61-2.46-5.44-3.77-1.13-.78-2.22-1.65-3.29-2.55l-.9-.77c-.25-.22-.5-.43-.75-.66-.8-.7-1.6-1.42-2.39-2.17l-.31-.29c-1-.91-2-1.85-3-2.81-.69-.66-1.41-1.35-2.16-2-.34-.33-.69-.65-1-1-.31-.35-.56-.49-1-.83-1.73-1.42-4.76-3.77-5.78-4.57l-.42-.69-3.83-6.24-.42-.69c38.82 7.8 86.84 6.48 123.22-1.72 31.14-7 42.49-15.3 64.27-12.5l1 .12.47-.14c12.51-3.69 19.65-4.58 29.53-4.66 5.22.035 10.42.635 15.51 1.79.32.06.65.13 1 .21l.47-.08a112.411 112.411 0 0 1 22.2-1.65c8.29.02 16.47 1.936 23.91 5.6.32.15.65.31 1 .48h.55c8.72.678 17.2 3.204 24.87 7.41.42.23.83.47 1.23.71l.56.15c14.19 3.71 24.28 11.33 27.23 15.24.25.314.46.648.65 1l.48.4c.18.14.36.28.53.43a42.21 42.21 0 0 1 7.4 8c.3.73.79 1.4 1.17 2.08z" fill="#F8F9FA"/><path d="M1164.55 230.169c-17.19-12.35-45.17-22.49-99-15.68-80 10.13-119.63 74-226.86 74-17 0-27.8-4.31-36-13.24a52.028 52.028 0 0 1-6-7.94 82.134 82.134 0 0 1-4.18-7.66c-.81-1.65-1.61-3.37-2.38-5.16-.37-.86-.76-1.7-1.17-2.53a41.041 41.041 0 0 0-3.89-6.58c-.07-.3-.15-.6-.23-.9a24.082 24.082 0 0 0-.76-2.31l-1.85-3.72a18.425 18.425 0 0 0-9.48-8.24 9.06 9.06 0 0 0-3.45-4.68l-.1-.07c-4.74-3.5-12.59-4.52-16-4.2h-.14a18.854 18.854 0 0 0-10.82-4.42h-.05c-2.46-.19-4.61 0-6.25 0a2.119 2.119 0 0 0-.31-.22 11.247 11.247 0 0 0-2.22-1.25 27.12 27.12 0 0 0-8.25-1.92 49.276 49.276 0 0 0-9.32.56l-.32-.25a12.089 12.089 0 0 0-2.5-1.48l-.31-.11a32.465 32.465 0 0 0-3.22-.95l.3-.05c14.28-2.23 22.76-4.8 31.37-6.95 19.14-4.73 30.18-1.78 30.74-1.62 0 0 22-7.16 32.35-3.74 3-.74 6.42-1.57 8.56-1.92a34.532 34.532 0 0 1 15 .61c1.49-.37 2.85-.64 4.06-.82 17.35-2.52 23.08-.62 23.49-.47 3.24-1 6-1.81 8.13-2.26 8.93-1.89 19.21-.93 19.21-.93 18.67-6.27 27.67-3.24 27.67-3.24 10.29-3.76 26.27-7.56 30.09-7.55 16.42-9.11 42.63-11.48 45.7-9.3 2.69-.58 4.48-1.54 6.67-2.17 18.1-5.21 39.58-1.1 40.41-.94 25.83-1.86 49.36 3.83 57.13 9.88 13.34 3.08 24.54 8.39 32.09 15.3 17.37 6 26.19 15.07 30.07 19.84a43.42 43.42 0 0 1 7.78 8.22 43.801 43.801 0 0 1 3.83 6.24l.41.82z" fill="#F8F9FA"/><path d="M785.271 245.059c-.14-.2-.29-.39-.43-.58-9-11.73-25.08-16.18-61 2.7-52.92 27.81-116.54 52.72-163.5 52.72-31.63 0-55.58-4-74.05-9.06-2.91-.79-5.69-1.61-8.34-2.44l-10.47-3.57c-2.69-1-5.23-2-7.62-2.92-2.39-.92-4.67-1.91-6.8-2.81l-5.66-2.4-2.25-.94c-.77-.31-1.54-.63-2.32-.93l-1.6-.61a101.78 101.78 0 0 0-5.76-2c2.35.14 4.81.21 7.36.23 24.55.2 57.56-4.88 85.64-13.49 33.61-10.31 63.2-29.16 78.75-36.58 12.48-6 26.08-10.7 31.54-7.64 12.33-4.42 23.63-5.51 29.08-2 10.92-3 19.53-3.27 24-.56 7.15-1.81 13.18-2.21 18-1 1 .247 1.978.582 2.92 1 .977.434 1.906.971 2.77 1.6 7.46-1.26 13.42-.74 17.89 1.61.724.368 1.417.797 2.07 1.28h.15a26.338 26.338 0 0 1 6.56.18h.05a19.405 19.405 0 0 1 10.06 4.41h.92c6 .1 11.78 1.34 16 4.2l.1.07a14.367 14.367 0 0 1 4.4 4.71c6.15 2.99 9.84 8.31 11.54 14.82z" fill="#F8F9FA"/><path d="M1555.69 223.98a.49.49 0 0 1-.21.322.495.495 0 0 1-.37.088c-2.34-.364-4.7-.508-7.07-.43-5.24 0-10.63 2-16.88 4.33-8.28 3.07-18.46 6.86-32.42 7.57-.14-.13-.53-.59-.85-1h.49c14-.66 24.16-4.44 32.43-7.52 6.34-2.35 11.81-4.39 17.21-4.39 2.43-.081 4.85.07 7.25.45.07.01.14.037.19.08.08.052.15.126.19.215.04.089.06.188.04.285z" fill="#E8EAED"/><path d="M1502.3 239.29c19.29-.26 31.35-5.6 42-10.35 4.26-1.985 8.63-3.737 13.08-5.25.74-.25 1.5-.48 2.27-.69l.17-.05a52.874 52.874 0 0 1 14.42-2c2.29.034 4.57.205 6.84.51.72.1 1.45.2 2.18.32.13.02.26-.011.37-.088a.48.48 0 0 0 .2-.322.375.375 0 0 0 0-.21.56.56 0 0 0-.15-.239.56.56 0 0 0-.25-.131h-.09c-3-.505-6.04-.783-9.09-.83-6.52.016-13 1.177-19.12 3.43l-.16.06c-.63.22-1.25.45-1.87.69-3.1 1.18-6.12 2.52-9.2 3.88-10.77 4.78-22.94 10.18-42.59 10.28l.99.99z" fill="#E8EAED"/><path d="M1505.61 242.99h.86c24.87 0 42-7.25 57.15-13.68 12.56-5.33 24.42-10.36 38.66-10.36 2.72.028 5.43.222 8.12.58.78.09 1.56.21 2.34.34.08.025.17.025.25 0a.49.49 0 0 0 .31-.39.468.468 0 0 0-.22-.5.326.326 0 0 0-.18-.07h-.13a62.994 62.994 0 0 0-29.4 1.91l-1.35.4-.88.28c-6 1.89-11.88 4.39-17.89 6.93-15.42 6.54-32.86 13.93-58.47 13.59l.83.97z" fill="#E8EAED"/><path d="M1509.82 247.23h.31c44.6 0 64.87-10.19 81.25-18.43 7.22-3.63 13.83-7 21.57-8.94a62.146 62.146 0 0 1 15.66-1.92c1.85-.045 3.71.028 5.55.22.87.09 1.7.21 2.48.35.13.021.27-.011.37-.087a.491.491 0 0 0 .21-.323.447.447 0 0 0-.04-.278.436.436 0 0 0-.18-.212.359.359 0 0 0-.19-.09h.01a43.005 43.005 0 0 0-8.15-.57 62.829 62.829 0 0 0-15.88 1.94l-1.17.31-1.2.35c-6.83 2-12.87 5.08-19.42 8.37-16.48 8.29-36.93 18.57-82.47 18.31l1.29 1z" fill="#E8EAED"/><path d="M1515.4 251.72a91.881 91.881 0 0 0 16.08 1.34c2.06 0 4.11-.06 6.09-.19 11.41-.81 40-3.71 58.46-13.27 5.65-2.93 10.37-5.92 14.94-8.82 12.45-7.91 23.19-14.74 45.28-13.86 2.87.06 5.74.311 8.58.75.88.14 1.81.31 2.84.51a.478.478 0 0 0 .38-.073.486.486 0 0 0 .21-.327.398.398 0 0 0 0-.188.382.382 0 0 0-.07-.174.347.347 0 0 0-.13-.134.462.462 0 0 0-.17-.074 63.146 63.146 0 0 0-11.56-1.28 73.62 73.62 0 0 0-19.49 1.56c-.4.09-.8.18-1.19.29l-1.36.36c-9.24 2.56-16.21 7-23.79 11.8-4.54 2.89-9.24 5.88-14.86 8.78-18.35 9.48-46.72 12.36-58.07 13.16a90.3 90.3 0 0 1-23.7-1.52l1.53 1.36z" fill="#E8EAED"/><path d="M1520.06 256.02c8.8 1.818 17.77 2.723 26.76 2.7 3.91 0 8.08-.16 12.48-.55 26.19-2.32 42.62-11.63 58.52-20.62 19.26-10.91 39.18-22.19 76.66-20.45 4.17.068 8.3.697 12.3 1.87.86.269 1.7.586 2.52.95.03.004.07.004.1 0a.525.525 0 0 0 .39-.095.456.456 0 0 0 .16-.195.475.475 0 0 0 0-.37.536.536 0 0 0-.1-.172.45.45 0 0 0-.16-.118l-.14-.06c-4.8-2.1-10.06-2.6-15-2.84-8.9-.472-17.83-.094-26.66 1.13-1 .14-2 .3-3 .47-20.06 3.43-34 11.29-47.52 19-15.8 9-32.13 18.2-58.11 20.5a132.813 132.813 0 0 1-40.52-2.47l1.32 1.32z" fill="#E8EAED"/><path d="M1524.89 260.87a104.445 104.445 0 0 0 28.17 3.65c39.7-.83 62.08-12.48 83.72-23.75 20.52-10.69 40-20.81 72.61-20.82h.17c2.49 0 5.05.06 7.69.18 4.56.22 11 .77 16.87 3 .88.34 1.75.7 2.59 1.11h.22a.48.48 0 0 0 .45-.28c.04-.11.04-.23 0-.34a.644.644 0 0 0-.09-.195.497.497 0 0 0-.17-.135h-.1c-6.64-3.19-14.45-3.89-19.76-4.14-2.66-.13-5.23-.19-7.74-.19H1706.74c-31.29.52-50.36 10.45-70.44 20.91-21.54 11.22-43.81 22.81-83.28 23.64-10.02.093-20-1.299-29.61-4.13l1.48 1.49z" fill="#E8EAED"/><path d="M1530.5 266.53a103.462 103.462 0 0 0 22.29 3.61c3.65.2 7.17.3 10.57.3 38.24 0 61.86-12.09 84.77-23.8 24.43-12.5 47.51-24.31 86.87-22.5.61 0 1.22.06 1.82.11h.11a68.095 68.095 0 0 1 27 8c1.28.7 2.18 1.25 2.65 1.56h.12c.1.025.21.018.3-.02.1-.038.18-.104.23-.19a.628.628 0 0 0 .08-.188.46.46 0 0 0-.01-.202.59.59 0 0 0-.22-.29l-.09-.06a67.996 67.996 0 0 0-30-9.64c-.66 0-1.33-.09-2-.12H1734.08c-39.07-1.61-62.08 10.18-86.45 22.65-24.82 12.69-50.49 25.82-94.82 23.39a100.471 100.471 0 0 1-23.87-4.13l1.56 1.52z" fill="#E8EAED"/><path d="M1535.82 271.66a130.935 130.935 0 0 0 31.4 4.53h2.57c46 0 78.65-14.31 107.56-27 23.86-10.44 44.48-19.46 67.36-18.12 9.79.57 16.75 1.49 22 2.73 3.93.82 7.68 2.316 11.09 4.42.68.43 1.33.88 1.94 1.35a.5.5 0 0 0 .7-.09v-.06c.06-.104.09-.228.06-.348a.469.469 0 0 0-.18-.302c-3.18-2.4-7-4.39-13.33-5.91-.67-.16-1.36-.31-2.09-.46l-1-.2a150.369 150.369 0 0 0-19.13-2.12c-23.13-1.36-43.84 7.71-67.83 18.21-28.81 12.61-61.39 26.87-107.16 26.87h-2.56a130.245 130.245 0 0 1-33.07-5.08l1.67 1.58z" fill="#E8EAED"/><path d="M1543.51 278.05c10.53 2.85 23.62 4.29 39.09 4.29 1.8 0 3.64 0 5.51-.06 41.07-.86 63.19-5.61 94.66-20.36 5.55-2.6 10.56-5.13 15.41-7.58 17.18-8.68 30.76-15.53 50.56-16.42 30.61-1.37 40.22 4.09 46.4 8.7l1.5 1.15.58.44a.37.37 0 0 0 .14.07.5.5 0 0 0 .29-.01.515.515 0 0 0 .32-.35.472.472 0 0 0-.01-.288.463.463 0 0 0-.17-.232l-.11-.08-.47-.37a38.795 38.795 0 0 0-16.88-8.14l-1.51-.33-1-.2c-6.84-1.29-16.11-1.94-29.12-1.36-20 .9-33.68 7.8-51 16.52-4.84 2.45-9.85 5-15.38 7.57-31.33 14.68-53.35 19.42-94.26 20.27-19.06.4-34.74-1.24-46.74-4.89l2.19 1.66z" fill="#E8EAED"/><path d="M1825.11 265.04c-.86-.48-1.76-1-2.68-1.43a54.402 54.402 0 0 0-25-15.3h-.07a89.659 89.659 0 0 0-27.09-3.33 98.549 98.549 0 0 0-31.2 5.28c-9.12 3.11-17.41 7.3-26.3 11.8-19.66 9.94-41.7 21.09-81.45 24.85-3.76.347-7.69.633-11.79.86-6.24.33-12.31.48-18.13.48-20.82 0-38.44-1.94-49.25-4.66l-3.5-2c12.43 4 39.43 6.84 70.82 5.18 5.93-.313 11.51-.773 16.75-1.38 36.45-4.18 57.37-14.75 76.1-24.22a237.503 237.503 0 0 1 22.65-10.49 99.73 99.73 0 0 1 35.29-6.7h1.78c7.78-.085 15.55.819 23.1 2.69.65.16 1.27.34 1.89.51l.68.2a56.163 56.163 0 0 1 27.4 17.66zM1508.2 246c-.25-.19-.5-.38-.76-.56l-.24-.16-1.16-.77a42.413 42.413 0 0 0-8.84-9.54c-8.66-6.76-20.22-10-35.32-10h-.55c-16.32.08-34.83.17-68.82 13.46-6.09 2.36-60.86 23.19-106.63 28a349.974 349.974 0 0 1-36.5 2.23c-11.23.125-22.44-.913-33.46-3.1l-4.43-2-.11-.05c.72.19 1.43.36 2.15.53 23.42 5.59 50.92 3.71 72.27 1.44 45.64-4.82 100.29-25.61 106.37-28 34.16-13.35 52.76-13.44 69.18-13.52 14-.06 25.07 2.64 33.67 8.26.61.4 1.21.81 1.8 1.24.35.25.68.51 1 .77l.15.12c3.8 3.02 7.06 6.657 9.65 10.76l.58.89z" fill="#E8EAED"/><path d="M1193.32 253.25c16.61 4.44 35.63 6.72 54.85 6.72 9.66.005 19.31-.579 28.9-1.75 43.23-5.35 98.53-24.53 107.62-28.08 34.41-13.42 53.5-13.42 68.83-13.42 5.17.007 10.32.642 15.34 1.89h.1c12.9 3.27 22 9.57 26 13.57.78.732 1.45 1.566 2 2.48.02.116.08.221.17.295.09.074.2.111.32.105a.478.478 0 0 0 .23-.063c.08-.04.14-.097.18-.167a.534.534 0 0 0 .09-.3.375.375 0 0 0 0-.21c-2-3.86-13.18-12.7-28.67-16.63h-.09c-.47-.12-.94-.23-1.42-.33-.63-.15-1.27-.29-1.92-.41a65.261 65.261 0 0 0-12.31-1.2c-15.42 0-34.61 0-69.18 13.53-9.08 3.55-64.26 22.69-107.38 28-28.85 3.58-59.81 1.62-85-5.36l-1.37-.39 2.71 1.72z" fill="#E8EAED"/><path d="M1181.9 245.16c17.52 4.09 38.15 6.11 62.58 6.11 7.58 0 15.54-.193 23.87-.58 38.43-1.8 82.64-19.33 97.16-25.1l2.5-1c35.57-13.91 54.16-14.76 68.82-14.46 1.93 0 3.8.14 5.55.29a62.756 62.756 0 0 1 23.42 6.44c1 .53 2 1.08 3 1.66.04.01.07.01.11 0 .1.026.21.019.31-.021.09-.04.18-.109.23-.199a.391.391 0 0 0 .06-.21.44.44 0 0 0-.04-.276.48.48 0 0 0-.19-.204 62.125 62.125 0 0 0-26.75-8.21h-.08l-1.08-.08-1.55-.11c-1-.06-2-.1-3-.1-14.73-.3-33.45.56-69.19 14.52l-2.51 1c-14.49 5.74-58.57 23.23-96.83 25-35.63 1.66-64.16-.22-87.2-5.75l-.86-.21 1.67 1.49z" fill="#E8EAED"/><path d="M1442.9 209.89c.03.091.03.189 0 .28a.47.47 0 0 1-.18.198.515.515 0 0 1-.26.072.466.466 0 0 1-.2-.06c-.77-.4-1.55-.78-2.35-1.13-7-3.193-14.6-4.859-22.3-4.89-7.55-.182-15.11.39-22.55 1.71a.316.316 0 0 1-.13 0c-12.86 2.3-27.51 7-46.09 14.72-1.91.8-47.25 19.49-93.82 21.67-5.5.26-13.56.54-22.72.54-19.47 0-44-1.26-59.8-6.61-.34-.33-.69-.65-1-1-.31-.35-.56-.49-1-.83l1.18.44c22.86 8.26 65.89 7.24 83.33 6.42 46.39-2.17 91.58-20.8 93.48-21.59 17.53-7.31 31.59-11.9 44-14.34.51-.1 1-.2 1.51-.28l.94-.18h.07c7.49-1.33 15.1-1.91 22.7-1.73 8.7.033 17.26 2.119 25 6.09l.1.05c.05.061.09.134.1.213.02.079.02.16-.01.237z" fill="#E8EAED"/><path d="M1163.74 228.58c1.28.34 2.58.66 3.87 1a231.102 231.102 0 0 0 53 5.79c39.48 0 75.64-8.47 95.09-15.37 13.73-4.87 24.57-8.62 32.81-11.08 13.25-3.94 20.46-4.7 29.86-4.78 4.7.028 9.39.517 14 1.46.8.16 1.6.34 2.4.53.08.025.17.025.25 0a.532.532 0 0 0 .21-.134c.06-.061.1-.135.12-.216a.504.504 0 0 0-.06-.379.525.525 0 0 0-.31-.231h-.1a74.016 74.016 0 0 0-16.5-2c-9.47.08-16.72.83-30 4.77h-.16c-.68.2-1.38.41-2.1.64-8 2.45-18.15 6-30.76 10.46-27.91 9.9-90.39 23.06-147.49 9.54-1.42-.32-2.85-.68-4.24-1a.46.46 0 0 0-.4.06l.51.94z" fill="#E8EAED"/><path d="M1160.29 223.08c2.23.51 4.69 1 7.36 1.44 13.39 2.24 30.72 3.3 48.29 3.3 25.89 0 52.29-2.31 67.32-6.59 5-1.43 9.57-2.74 13.68-3.91 29.12-8.37 36.38-10.46 49.16-8.76.7.08 1.42.19 2.16.3.13.02.26-.011.37-.088a.478.478 0 0 0 .2-.322.631.631 0 0 0 0-.194.962.962 0 0 0-.08-.178.49.49 0 0 0-.15-.132.421.421 0 0 0-.18-.066h-.06c-14.39-2.23-20.84-.39-51.7 8.48-4.1 1.18-8.63 2.49-13.68 3.92-25.11 7.15-82.16 8.77-115.17 3.27-2.84-.47-5.46-1-7.79-1.56a.455.455 0 0 0-.24.005.491.491 0 0 0-.21.125l.72.96zM782.82 238.95c4.65.493 9.323.74 14 .74 45.54 0 85.07-23.18 117.44-42.15 9.45-5.54 18.4-10.79 26.45-14.8a.12.12 0 0 0 .07 0 86.186 86.186 0 0 1 18.04-7.02c8-1.86 19.29-3.28 25.91-2.78.67.043 1.338.123 2 .24a.523.523 0 0 0 .377-.09.514.514 0 0 0 .203-.33.508.508 0 0 0-.42-.58h-.1c-6.49-1.07-19.36.51-28.24 2.57a86.732 86.732 0 0 0-18.07 7l-.11.06c-.81.4-1.63.82-2.46 1.25-7.44 3.83-15.56 8.59-24.1 13.61-35.64 20.89-80 46.9-131.39 41.21h-.13l.53 1.07z" fill="#E8EAED"/><path d="M778.28 233.26h2.54c56 0 84-17 106.65-30.72 8.4-5.09 15.64-9.48 23.18-12.25h.08a199.42 199.42 0 0 1 27.09-7.22 13.905 13.905 0 0 1 2.62-.3.41.41 0 0 0 .22 0 .12.12 0 0 0 .07 0 .533.533 0 0 0 .26-.38.519.519 0 0 0-.44-.56h-.17c-2.68 0-19.71 3.8-30 7.53l-.16.06c-.52.19-1.05.39-1.57.6-7.07 2.81-13.94 7-21.82 11.75-23 13.93-51.61 31.26-109.64 30.55a.442.442 0 0 0-.17 0l1.26.94z" fill="#E8EAED"/><path d="M769.71 225.82c49.85-1.1 81.11-16.73 99.73-26.1a119.483 119.483 0 0 1 13.54-6.2c13.89-4.66 22.43-4.12 25.75-3.58a10.82 10.82 0 0 1 1.6.35.43.43 0 0 0 .27 0c.039.008.08.008.12 0a.453.453 0 0 0 .24-.28.489.489 0 0 0-.31-.63l-.19-.06c-1.41-.41-10.37-2.53-27.68 3.26h-.11c-.71.24-1.45.51-2.22.83-3.19 1.28-6.94 3.16-11.44 5.41-18.68 9.37-50 25-100 26a.53.53 0 0 0-.41.22l1.11.78z" fill="#E8EAED"/><path d="M761 222.12c23.6-.86 55.25-11.86 78.52-20 6.2-2.15 11.54-4 16-5.44 2.88-.89 5.86-1.78 8.08-2.25a70.581 70.581 0 0 1 16.76-1.06c1.42.06 2.27.14 2.3.14a.53.53 0 0 0 .55-.45.508.508 0 0 0-.45-.55h.06c-.93-.08-10.78-.85-19.29.95-2.23.47-5.17 1.35-8 2.23h-.14l-1.73.56c-4.14 1.35-8.92 3-14.35 4.9-23.78 8.26-56.35 19.58-80 19.94h-.13a.5.5 0 0 0-.5.5l2.32.53z" fill="#E8EAED"/><path d="M748.82 218.86c21.59-2.24 43-9.31 60.17-15 7.53-2.48 14-4.63 19-5.83h.07c1.4-.35 2.73-.61 3.94-.79 12.37-1.8 18.78-1.33 21.54-.89a11.53 11.53 0 0 1 1.7.39.5.5 0 0 0 .32 0 .594.594 0 0 0 .31-.31.504.504 0 0 0-.3-.64l-.17-.05c-1.18-.38-7.27-1.87-23.56.5a39.161 39.161 0 0 0-4 .79h-.12l-2 .51c-4.71 1.26-10.51 3.18-17.09 5.36-17.2 5.68-38.59 12.75-60.12 15a.494.494 0 0 0-.432.354.498.498 0 0 0-.018.196.15.15 0 0 0 0 .11l.76.3z" fill="#E8EAED"/><path d="M739.82 216.57c13.91-2.9 30.31-7.58 44.92-11.75 12.26-3.5 22.85-6.53 28.3-7.4a34.046 34.046 0 0 1 12.77.14c.67.13 1.34.28 2 .46a.503.503 0 0 0 .564-.73.48.48 0 0 0-.304-.23h-.16a35.069 35.069 0 0 0-15.05-.58c-2 .31-4.57.9-7.68 1.68l-2.58.67c-5.16 1.35-11.41 3.14-18.15 5.07-15.88 4.53-33.89 9.68-48.47 12.46a.474.474 0 0 0-.38.33l4.22-.12z" fill="#E8EAED"/><path d="M727.62 213.5c18.05-3.35 32.6-7.14 44.52-10.43 2.9-.83 5.49-1.53 7.77-2.15l1.32-.36a57.191 57.191 0 0 1 21.34-1.77c.84.09 1.68.19 2.52.32a.498.498 0 0 0 .196-.012.488.488 0 0 0 .309-.232.504.504 0 0 0-.365-.756h-.08a57.9 57.9 0 0 0-24.18 1.48l-1.33.36c-2.23.6-4.77 1.29-7.6 2.1h-.16l-1.93.53c-12 3.3-26.66 7-44.76 10.29a.473.473 0 0 0-.34.25l2.77.38z" fill="#E8EAED"/><path d="M772.49 202.72a.504.504 0 0 1-.62.34 18.445 18.445 0 0 0-1.93-.41c-3.94-.68-13.78-1.61-28.55 2-1.67.41-3.35.85-5.06 1.3a247.163 247.163 0 0 1-25.46 5.51c-.35-.11-.7-.21-1.06-.3l-.68-.17a.494.494 0 0 1 .39-.32 246.585 246.585 0 0 0 26.56-5.69c1.72-.45 3.39-.88 5.07-1.3 18.67-4.62 29.64-2 30.89-1.65h.11a.493.493 0 0 1 .332.265.5.5 0 0 1 .008.425zM1163.72 229.58a43.906 43.906 0 0 0-11.43-14.26l-.09-.08c-18.16-14.7-49.93-18.15-94.42-10.25-34.06 6.05-64.56 21.1-94.05 35.65C924.5 259.99 883.93 280 833.62 280h-.8c-12.84-.05-22.23-1.32-29.4-4l-.11-.12-1.49-1.56c.35.16.72.3 1.09.43 7.18 2.82 16.66 4.16 29.84 4.21h.79c50.08 0 90.53-20 129.67-39.26 29.55-14.58 60.11-29.65 94.31-35.73 41.8-7.43 72.49-4.86 91.36 7.62.67.44 1.32.89 2 1.36.67.48 1.32 1 2 1.5a45.362 45.362 0 0 1 12.13 15.43c.13.26.25.51.36.76l-1.65-1.06z" fill="#E8EAED"/><path d="M797.04 267.86c6.78 2 15.17 2.92 26.36 3h.78c50.38 0 89.21-20.45 126.77-40.23 28.27-14.89 57.5-30.28 91.4-36.78 32-6.12 58.84-5.56 79.85 1.65h.09l.19.07c10.68 3.72 19.71 9.21 26.41 16a45.662 45.662 0 0 1 3.23 3.6l.09.08a.536.536 0 0 0 .59 0v-.05a.492.492 0 0 0 .12-.325.488.488 0 0 0-.12-.325l-.06-.08c-7-8.61-17.44-15.47-30.11-19.86h-.11l-1.16-.38c-.4-.14-.8-.27-1.21-.39-20.83-6.56-47.08-6.89-78.09-.95-34 6.52-63.35 21.95-91.68 36.88-37.46 19.72-76.17 40.11-126.32 40.11h-.77c-11.27-.05-19.67-1-26.42-3-.25-.07-.49-.15-.74-.24l.91 1.22z" fill="#E8EAED"/><path d="M1122.99 195.25a.394.394 0 0 1-.1.17.493.493 0 0 1-.37.16.43.43 0 0 1-.28-.1h-.05a44.9 44.9 0 0 0-1.92-1.66c-7.39-6-17.68-10.69-29.94-13.52-15.81-3.69-33.54-4-51.28-1-35.76 6.12-69.3 24.56-101.74 42.38-39.09 21.48-76 41.78-115.93 41.78h-.71c-11.54-.08-20.92-1.16-27.88-3.24-.1-.18-.18-.36-.27-.54-.09-.18-.22-.46-.34-.69l.63.19c6.9 2.1 16.27 3.21 27.86 3.28 39.92.19 76.95-20.11 116.16-41.65 32.51-17.87 66.13-36.34 102.06-42.49a133.038 133.038 0 0 1 49.08.43l1.36.29 1.21.27h.12c13.42 3.12 24.51 8.4 32.09 15.29l.11.1a.504.504 0 0 1 .13.55z" fill="#E8EAED"/><path d="M1090.82 179.88a.366.366 0 0 1-.08.17.49.49 0 0 1-.33.184.509.509 0 0 1-.37-.104c-.67-.521-1.38-.992-2.12-1.41-9.46-5.5-31.61-10-54.66-8.36a116.47 116.47 0 0 0-34.05 7.42c-27.85 10.9-50.57 24.26-72.54 37.18-35.15 20.66-65.5 38.5-105.39 39.08-2.78 0-5.58.07-8.36.07-8.76 0-17.23-.31-23.72-1.65l-.24-.5c-.1-.21-.2-.43-.32-.64l.57.12c8.48 1.78 20.48 1.77 32.05 1.6 39.63-.57 69.87-18.35 104.9-38.94 22-12.94 44.77-26.32 72.69-37.26a117.676 117.676 0 0 1 30.2-7.13c.67-.07 1.34-.14 2-.19l2.16-.16c20-1.44 47 1.9 57.39 10 .09.053.15.132.19.225.04.093.05.196.03.295z" fill="#E8EAED"/><path d="M784.61 242.9c5.34 2.5 15.45 3.36 25.38 3.36 6.3 0 12.52-.35 17.42-.83 34.82-3.45 71.06-24.59 103-43.23 22.55-13.15 43.84-25.57 62.55-30.92 13.42-3.86 28.86-2.54 36.08-1.57 2.38.32 3.87.6 4.1.64h.09a.489.489 0 0 0 .49-.4.65.65 0 0 0 0-.197.42.42 0 0 0-.08-.182.379.379 0 0 0-.14-.138.415.415 0 0 0-.18-.073h-.09c-1.77-.34-22.87-4.13-40.55 1-1.947.56-3.923 1.193-5.93 1.9l-2.09.76c-16.79 6.22-35.3 17-54.74 28.35-31.89 18.6-68 39.67-102.63 43.1-15.5 1.54-35.81 1.09-42.91-2.76a.499.499 0 0 0-.27-.06l.5 1.25z" fill="#E8EAED"/><path d="M785.951 246.629c-.28-.43-.57-.86-.88-1.28-.07-.3-.15-.6-.23-.9l-.72-.91a22.898 22.898 0 0 0-2.26-4.9 20.37 20.37 0 0 0-8.42-7.71.921.921 0 0 0-.2-.09c-9.63-4.67-26.66-4.45-56.71 9.6-3.38 1.58-7.27 3.46-11.4 5.45l-6.4 3.09c-21.41 10.29-47 22-74.78 31.32-26.17 8.72-63.95 13.58-99 13.58a320.779 320.779 0 0 1-33.12-1.61l-6.55-1.73-.37-.1c42.64 5.7 102.05 1.08 138.64-11.13 27.69-9.25 53.28-21 74.66-31.27l6.41-3.09c4.12-2 8-3.87 11.41-5.45 29-13.54 46.07-14.34 56.17-10.22.56.22 1.09.46 1.6.72a21.275 21.275 0 0 1 8.87 8.1 25.423 25.423 0 0 1 1.89 3.8 27.198 27.198 0 0 1 1 3.28c.18.48.3.96.39 1.45z" fill="#E8EAED"/><path d="M479.611 288.869c10.71.92 24.25 1.52 38.46 1.52 24 0 50-1.72 67.38-6.48 48.59-13.3 93.39-34.39 122.41-49.74 13.25-7 31.28-12.64 45.27-12.5h.07a35.018 35.018 0 0 1 10 1.38 16.29 16.29 0 0 1 9 6.22c.303.44.581.897.83 1.37.032.059.076.11.13.15.059.06.136.098.22.11a.458.458 0 0 0 .32-.05.479.479 0 0 0 .246-.29.49.49 0 0 0-.036-.38l-.11-.19c-2-3.75-5.51-6.41-10.34-7.9a35.73 35.73 0 0 0-10.11-1.43h-1.59c-15.23.26-33.62 7-44.34 12.64-29 15.32-73.71 36.38-122.21 49.66-29 7.93-82 7.38-109.9 4.5l4.3 1.41z" fill="#E8EAED"/><path d="M468.881 285.269a357.323 357.323 0 0 0 36.72 1.69c25.56 0 55.21-2.14 74.5-8.29 41.45-13.19 75.51-29.52 102.92-42.61 5.49-2.62 10.67-5.1 15.65-7.43l2.22-1c13.05-6.06 25.53-9.73 35.16-10.31 5-.29 9.15.23 12.36 1.54a14.6 14.6 0 0 1 3.32 1.84c.382.277.749.574 1.1.89a.456.456 0 0 0 .31.13.536.536 0 0 0 .459-.322.493.493 0 0 0 0-.385.497.497 0 0 0-.109-.163l-.17-.15a15.709 15.709 0 0 0-4.54-2.77c-3.31-1.36-7.56-1.9-12.63-1.62h-.16c-.52 0-1.05.07-1.59.13-9.52.85-21.49 4.48-34 10.27l-2.22 1c-5 2.33-10.17 4.82-15.66 7.44-27.38 13.11-61.46 29.42-102.75 42.59-31.74 10.14-91.87 9.32-114.99 6.02h-.05l4.15 1.51z" fill="#E8EAED"/><path d="M736.471 217.059a.517.517 0 0 1-.39.23.525.525 0 0 1-.27-.08c-.44-.28-.89-.55-1.35-.79a21.009 21.009 0 0 0-9.18-2.52c-6.93-.46-15.89 1.41-26.61 5.54-3.43 1.32-7.1 2.9-10.92 4.69-5.61 2.64-11.51 5.5-17.76 8.52-27.12 13.1-60.84 29.41-101.7 42.6-17.37 5.6-41.72 8.42-72.67 8.42-10.46 0-21.66-.333-33.6-1l-2.15-.83-.87-.34c48.72 2.82 85.38.39 109-7.23 40.78-13.14 74.46-29.44 101.55-42.53 6.25-3 12.16-5.88 17.78-8.52 3.83-1.81 7.53-3.4 11-4.73a93.205 93.205 0 0 1 16.46-4.84l1.43-.24a41.355 41.355 0 0 1 9.13-.52 22.178 22.178 0 0 1 10.88 3.38l.14.09a.53.53 0 0 1 .13.145.512.512 0 0 1-.03.555z" fill="#E8EAED"/><path d="M455.171 279.959c6.41.38 13.28.57 20.36.57 27.37 0 58-2.92 79-9.72 39.27-12.75 71.6-28.5 97.58-41.15 5.78-2.81 11.23-5.46 16.43-7.93a132.947 132.947 0 0 1 23.28-8.8 62.646 62.646 0 0 1 6.73-1.36 32.579 32.579 0 0 1 11 .08 15.848 15.848 0 0 1 5.23 2c.27.16.54.33.8.51a.482.482 0 0 0 .372.081.482.482 0 0 0 .318-.211.472.472 0 0 0-.06-.62.234.234 0 0 0-.07-.07 16.485 16.485 0 0 0-6.45-2.67 33.263 33.263 0 0 0-11.3-.08 60.12 60.12 0 0 0-6.62 1.33h-.2l-1.24.35a132.51 132.51 0 0 0-22.23 8.51c-5.21 2.47-10.66 5.12-16.43 7.93-26 12.64-58.25 28.37-97.45 41.09-27.08 8.84-70.46 11.12-101.84 8.98l2.79 1.18z" fill="#E8EAED"/><path d="M692.111 212.709a.51.51 0 0 1-.3.22.483.483 0 0 1-.39-.05 10.373 10.373 0 0 0-1.09-.56c-7.8-3.44-24.66.1-43.69 9.29-4.76 2.29-9.82 4.8-15.17 7.46-25.15 12.5-56.44 28.05-92.66 38.33-24.07 6.84-50.39 10.2-80.05 10.2-3.1 0-6.24-.036-9.42-.11l-1.93-.83-.57-.23c34.52 1 64.56-2.28 91.71-10 36.14-10.26 67.39-25.79 92.5-38.26 5.35-2.66 10.41-5.18 15.17-7.47a131.277 131.277 0 0 1 19.77-7.77l1.14-.33c11-3.09 19.85-3.44 24.66-.69l.17.1a.51.51 0 0 1 .15.7z" fill="#E8EAED"/><path d="M667.051 213.059a.499.499 0 0 1-.69.15 3.936 3.936 0 0 0-.39-.22c-5.13-3-14.92-2-26.7 2.35a.255.255 0 0 0-.11 0c-2.69 1-5.49 2.2-8.35 3.56-5.22 2.48-11.41 5.79-18.58 9.63-22.09 11.81-52.35 28-86.35 37-24.35 6.43-50.87 10-71.78 10-3.76 0-7.34-.12-10.68-.35-1.06-.39-2.31-.84-3.72-1.33 21.85 2.21 55.55-1.34 85.85-9.33 33.9-8.94 64.09-25.09 86.14-36.88 7.17-3.83 13.38-7.15 18.62-9.64 2.5-1.19 4.94-2.25 7.3-3.17.46-.18.92-.36 1.37-.52 12.44-4.65 22.54-5.44 27.87-2a.505.505 0 0 1 .21.29.48.48 0 0 1-.01.46z" fill="#E8EAED"/><path d="M639.461 215.059a.489.489 0 0 1-.19.19.239.239 0 0 1-.14 0 .423.423 0 0 1-.35 0 6.098 6.098 0 0 0-1.13-.47c-5.1-1.52-15.96 1.4-30.3 8.28-4.07 1.94-9.1 4.67-14.92 7.82-16.48 8.89-39.06 21.18-63.88 28.75-27.7 8.5-60.1 13.51-84.47 13.51-2.347 0-4.617-.05-6.81-.15l-3.72-1.21c24.78 1.81 62.85-3.34 94.68-13.11 24.75-7.61 47.32-19.8 63.72-28.71 5.84-3.16 10.88-5.89 15-7.84 7.4-3.53 25.21-11.28 32.12-7.81l.23.11a.5.5 0 0 1 .16.64z" fill="#E8EAED"/></svg>