<svg width="2480" height="301" viewBox="0 0 2480 301" fill="none" xmlns="http://www.w3.org/2000/svg">
<path d="M0 0H2480V301H0V0Z" fill="#040D12"/>
<path d="M1728.31 269.72C1722.12 274.612 1714.34 277.067 1706.46 276.619C1698.58 276.171 1691.14 272.853 1685.54 267.29L1664.08 245.99C1659.34 241.292 1652.94 238.654 1646.27 238.65H1668.06C1677.74 238.653 1687.19 241.581 1695.17 247.05L1728.31 269.72Z" fill="#040D12" stroke="black" stroke-width="2" stroke-linecap="round" stroke-linejoin="round"/>
<path d="M1740.82 270.93C1738.23 273.599 1735.14 275.725 1731.72 277.183C1728.3 278.64 1724.63 279.398 1720.91 279.413C1717.2 279.428 1713.52 278.699 1710.08 277.27C1706.65 275.839 1703.54 273.738 1700.94 271.09L1675.7 245.42C1673.22 242.89 1670.26 240.88 1667 239.508C1663.74 238.134 1660.24 237.424 1656.7 237.42H1680.05C1690.4 237.42 1700.47 240.766 1708.77 246.96L1740.77 270.89L1740.82 270.93Z" fill="#040D12" stroke="black" stroke-width="2" stroke-linecap="round" stroke-linejoin="round"/>
<path d="M1756.19 274.8C1753.76 277.469 1750.81 279.616 1747.53 281.111C1744.25 282.608 1740.7 283.426 1737.1 283.514C1733.49 283.602 1729.9 282.959 1726.55 281.623C1723.2 280.285 1720.16 278.284 1717.6 275.74L1689.75 248C1684.23 242.491 1676.76 239.398 1668.96 239.4H1694.96C1705.84 239.401 1716.39 243.096 1724.89 249.88L1756.16 274.82L1756.19 274.8Z" fill="#040D12" stroke="black" stroke-width="2" stroke-linecap="round" stroke-linejoin="round"/>
<path d="M1767.65 272.65C1766.43 275.785 1764.45 278.567 1761.88 280.741C1759.32 282.919 1756.25 284.423 1752.96 285.117C1749.67 285.812 1746.26 285.676 1743.03 284.72C1739.81 283.765 1736.87 282.023 1734.49 279.65L1702.89 248C1697.2 242.32 1689.5 239.13 1681.46 239.13H1708.82C1719.69 239.13 1730.23 242.818 1738.73 249.59L1767.64 272.59L1767.65 272.65Z" fill="#040D12" stroke="black" stroke-width="2" stroke-linecap="round" stroke-linejoin="round"/>
<path d="M1792.82 276.21C1790.36 279.783 1787.15 282.772 1783.41 284.968C1779.67 287.161 1775.5 288.507 1771.18 288.911C1766.86 289.314 1762.51 288.763 1758.42 287.297C1754.34 285.832 1750.63 283.488 1747.56 280.43L1714.95 248C1709.13 242.225 1701.27 238.99 1693.07 239H1723.32C1732.95 239.002 1742.36 241.901 1750.32 247.32L1792.82 276.21Z" fill="#040D12" stroke="black" stroke-width="2" stroke-linecap="round" stroke-linejoin="round"/>
<path d="M1804.23 279C1802.12 282.23 1799.34 284.957 1796.06 286.989C1792.78 289.021 1789.1 290.307 1785.27 290.757C1781.44 291.207 1777.56 290.808 1773.91 289.59C1770.25 288.374 1766.9 286.366 1764.11 283.71L1726.67 248.2C1720.41 242.27 1712.12 238.963 1703.5 238.96H1734.76C1745.13 238.963 1755.22 242.32 1763.53 248.53L1804.23 279Z" fill="#040D12" stroke="black" stroke-width="2" stroke-linecap="round" stroke-linejoin="round"/>
<path d="M1818.92 281C1817 284.37 1814.34 287.259 1811.14 289.447C1807.93 291.632 1804.27 293.056 1800.43 293.61C1796.59 294.164 1792.67 293.833 1788.98 292.642C1785.29 291.451 1781.92 289.433 1779.13 286.74L1744.39 253.23C1735.53 244.686 1723.7 239.912 1711.39 239.91H1749.91C1760.64 239.912 1771.05 243.506 1779.5 250.12L1818.92 281Z" fill="#040D12" stroke="black" stroke-width="2" stroke-linecap="round" stroke-linejoin="round"/>
<path d="M1829.5 283.23C1827.95 286.188 1825.73 288.744 1823.02 290.697C1820.31 292.653 1817.19 293.954 1813.9 294.5C1810.61 295.045 1807.23 294.82 1804.04 293.841C1800.85 292.865 1797.92 291.159 1795.5 288.86L1757.28 252.65C1748.64 244.467 1737.18 239.911 1725.28 239.92H1762.54C1774.31 239.92 1785.68 244.248 1794.47 252.08L1829.47 283.23H1829.5Z" fill="#040D12" stroke="black" stroke-width="2" stroke-linecap="round" stroke-linejoin="round"/>
<path d="M1851.42 282.56C1849.54 286.191 1846.84 289.338 1843.54 291.754C1840.24 294.169 1836.43 295.788 1832.4 296.483C1828.37 297.177 1824.23 296.927 1820.31 295.754C1816.39 294.58 1812.8 292.514 1809.82 289.72L1770.95 253.18C1761.6 244.39 1749.25 239.494 1736.42 239.49H1781.58C1792.64 239.491 1803.37 243.313 1811.94 250.31L1851.42 282.56Z" fill="#040D12" stroke="black" stroke-width="2" stroke-linecap="round" stroke-linejoin="round"/>
<path d="M1878.09 284.31C1874.74 288.332 1870.6 291.633 1865.94 294.014C1861.27 296.395 1856.18 297.806 1850.95 298.163C1845.73 298.52 1840.48 297.815 1835.54 296.091C1830.59 294.367 1826.05 291.658 1822.18 288.13L1787.23 256.24C1775.54 245.568 1760.28 239.651 1744.45 239.65H1797.82C1807.45 239.659 1816.86 242.564 1824.82 247.99L1878.09 284.31Z" fill="#040D12" stroke="black" stroke-width="2" stroke-linecap="round" stroke-linejoin="round"/>
<path d="M1902.06 285.23C1884.19 303.67 1852.84 303.38 1834.06 285.82L1804.06 257.72C1791.63 246.063 1775.22 239.577 1758.18 239.58H1814.52C1823.49 239.578 1832.28 242.09 1839.89 246.83L1901.98 285.23H1902.06ZM1418.16 241.93C1416.38 244.329 1414.07 246.282 1411.41 247.635C1408.75 248.988 1405.81 249.702 1402.82 249.72C1399.83 249.728 1396.89 249.042 1394.21 247.719C1391.53 246.395 1389.2 244.468 1387.39 242.09L1367.12 217.36C1365.5 215.228 1363.41 213.5 1361.01 212.311C1358.61 211.12 1355.98 210.5 1353.3 210.5H1364.19C1376.65 210.5 1388.62 213.35 1397.57 222.01L1418.19 242.01L1418.16 241.93Z" fill="#040D12" stroke="black" stroke-width="2" stroke-linecap="round" stroke-linejoin="round"/>
<path d="M1434.57 249.88C1432.89 252.273 1430.68 254.237 1428.1 255.616C1425.52 256.995 1422.66 257.748 1419.74 257.816C1416.82 257.883 1413.93 257.262 1411.29 256.004C1408.65 254.745 1406.35 252.883 1404.57 250.57L1382.37 223.89C1380.58 221.576 1378.29 219.703 1375.66 218.415C1373.04 217.126 1370.15 216.458 1367.23 216.46H1379.92C1392.92 216.46 1405.38 219.74 1414.42 229.09L1434.53 249.88H1434.57Z" fill="#040D12" stroke="black" stroke-width="2" stroke-linecap="round" stroke-linejoin="round"/>
<path d="M1446.82 252C1446 254.725 1444.44 257.172 1442.32 259.07C1440.2 260.969 1437.6 262.247 1434.8 262.763C1432 263.28 1429.11 263.015 1426.45 261.999C1423.79 260.98 1421.47 259.25 1419.73 257L1395.92 226.17C1392.19 221.34 1386.43 220.51 1380.32 220.51L1394.05 218.51C1400.48 218.51 1406.85 219.804 1412.77 222.314C1418.69 224.823 1424.05 228.498 1428.53 233.12L1446.82 252Z" fill="#040D12" stroke="black" stroke-width="2" stroke-linecap="round" stroke-linejoin="round"/>
<path d="M1468.18 255.72C1466.51 258.878 1464.07 261.566 1461.09 263.538C1458.11 265.512 1454.69 266.706 1451.13 267.012C1447.57 267.32 1443.99 266.73 1440.72 265.297C1437.45 263.863 1434.59 261.633 1432.4 258.81L1407.2 226.31C1405.32 223.879 1402.9 221.912 1400.14 220.56C1397.38 219.208 1394.34 218.507 1391.27 218.51H1407.82C1419.51 218.508 1430.81 222.775 1439.58 230.51L1468.14 255.71L1468.18 255.72Z" fill="#040D12" stroke="black" stroke-width="2" stroke-linecap="round" stroke-linejoin="round"/>
<path d="M1481.98 262.5C1480.55 265.367 1478.42 267.828 1475.79 269.658C1473.16 271.488 1470.11 272.629 1466.93 272.975C1463.74 273.322 1460.52 272.863 1457.56 271.64C1454.6 270.418 1451.99 268.472 1449.98 265.98L1421.12 230.5C1419.07 227.994 1416.5 225.976 1413.57 224.592C1410.65 223.208 1407.45 222.493 1404.22 222.5H1421.22C1433.7 222.477 1445.71 227.32 1454.68 236L1481.98 262.49V262.5Z" fill="#040D12" stroke="black" stroke-width="2" stroke-linecap="round" stroke-linejoin="round"/>
<path d="M1496.59 266.54C1495.29 269.507 1493.25 272.088 1490.66 274.032C1488.07 275.977 1485.02 277.22 1481.81 277.641C1478.6 278.063 1475.33 277.65 1472.33 276.441C1469.32 275.234 1466.68 273.27 1464.66 270.74L1437.91 237.3C1434.96 233.603 1431.21 230.619 1426.94 228.569C1422.67 226.52 1418 225.457 1413.27 225.46H1436.03C1442.4 225.456 1448.7 226.721 1454.57 229.18C1460.44 231.638 1465.77 235.241 1470.23 239.78L1496.59 266.54Z" fill="#040D12" stroke="black" stroke-width="2" stroke-linecap="round" stroke-linejoin="round"/>
<path d="M1506.99 269.77C1505.94 272.367 1504.23 274.645 1502.03 276.38C1499.83 278.115 1497.22 279.246 1494.45 279.662C1491.68 280.078 1488.84 279.764 1486.23 278.752C1483.62 277.74 1481.32 276.064 1479.55 273.89L1450.71 238.48C1447.62 234.721 1443.74 231.695 1439.34 229.619C1434.94 227.544 1430.13 226.472 1425.27 226.48H1447.56C1454.43 226.476 1461.23 227.949 1467.48 230.799C1473.74 233.648 1479.31 237.809 1483.82 243L1506.97 269.72L1506.99 269.77Z" fill="#040D12" stroke="black" stroke-width="2" stroke-linecap="round" stroke-linejoin="round"/>
<path d="M1527.01 270.56C1525.73 273.757 1523.64 276.565 1520.95 278.707C1518.26 280.85 1515.05 282.255 1511.65 282.782C1508.25 283.309 1504.77 282.94 1501.56 281.712C1498.34 280.487 1495.5 278.442 1493.32 275.78L1464.32 240.39C1461 236.349 1456.83 233.094 1452.1 230.858C1447.37 228.622 1442.21 227.462 1436.98 227.46H1465.65C1472.18 227.455 1478.64 228.783 1484.64 231.363C1490.64 233.942 1496.05 237.718 1500.54 242.46L1527.04 270.52L1527.01 270.56Z" fill="#040D12" stroke="black" stroke-width="2" stroke-linecap="round" stroke-linejoin="round"/>
<path d="M1564.27 273.89C1560.7 278.549 1556.11 282.327 1550.85 284.93C1545.59 287.532 1539.8 288.889 1533.93 288.898C1528.06 288.907 1522.27 287.566 1517 284.98C1511.73 282.394 1507.13 278.63 1503.55 273.98L1482.42 246.56C1477.84 240.617 1471.96 235.804 1465.23 232.491C1458.5 229.18 1451.09 227.458 1443.59 227.46H1486.59C1497.01 227.463 1507.15 230.857 1515.47 237.13L1564.26 273.89H1564.27Z" fill="#040D12" stroke="black" stroke-width="2" stroke-linecap="round" stroke-linejoin="round"/>
<path d="M1569.07 276.309C1566.75 279.91 1563.63 282.919 1559.94 285.094C1556.25 287.269 1552.1 288.546 1547.82 288.824C1543.55 289.103 1539.27 288.376 1535.33 286.701C1531.39 285.026 1527.89 282.45 1525.13 279.179L1498.13 247.259C1494 242.367 1488.85 238.436 1483.04 235.741C1477.23 233.045 1470.91 231.648 1464.51 231.649H1500.35C1512.05 231.642 1523.35 235.909 1532.13 243.649L1569.05 276.279L1569.07 276.309ZM1067.62 239.23C1054.8 249.35 1036.44 249.31 1024.85 237.8L1003.38 215.49C998.648 210.79 992.249 208.151 985.579 208.15H1007.36C1017.04 208.153 1026.49 211.077 1034.48 216.54L1067.62 239.23Z" fill="#040D12" stroke="black" stroke-width="2" stroke-linecap="round" stroke-linejoin="round"/>
<path d="M1078.11 240.43C1067.23 251.68 1049.21 252.76 1038.23 241.59L1013 214.92C1010.52 212.394 1007.56 210.385 1004.3 209.011C1001.04 207.638 997.537 206.927 993.999 206.92H1017.35C1027.7 206.92 1037.77 210.266 1046.07 216.46L1078.07 240.39L1078.11 240.43Z" fill="#040D12" stroke="black" stroke-width="2" stroke-linecap="round" stroke-linejoin="round"/>
<path d="M1093.5 245.3C1091.07 247.968 1088.12 250.115 1084.84 251.611C1081.56 253.108 1078.01 253.926 1074.41 254.014C1070.8 254.102 1067.21 253.458 1063.86 252.122C1060.51 250.785 1057.47 248.784 1054.91 246.24L1027.06 218.47C1021.54 212.97 1014.06 209.881 1006.27 209.88H1032.27C1043.15 209.876 1053.7 213.572 1062.2 220.36L1093.48 245.3H1093.5Z" fill="#040D12" stroke="black" stroke-width="2" stroke-linecap="round" stroke-linejoin="round"/>
<path d="M1103.96 242.15C1098.64 255.74 1081.13 259.41 1070.8 250.15L1039.19 218.57C1036.57 215.455 1033.3 212.956 1029.61 211.25C1025.91 209.548 1021.89 208.684 1017.82 208.72H1045.18C1056.05 208.72 1066.59 212.408 1075.09 219.18L1104.01 242.18L1103.96 242.15Z" fill="#040D12" stroke="black" stroke-width="2" stroke-linecap="round" stroke-linejoin="round"/>
<path d="M1129.07 245.72C1126.6 249.25 1123.42 252.217 1119.72 254.423C1116.02 256.63 1111.9 258.027 1107.62 258.521C1103.34 259.015 1099.01 258.594 1094.91 257.287C1090.8 255.983 1087.02 253.819 1083.82 250.94L1051.25 218.53C1048.56 215.359 1045.21 212.818 1041.43 211.09C1037.65 209.361 1033.54 208.487 1029.38 208.53H1059.63C1069.26 208.532 1078.67 211.431 1086.63 216.85L1129.06 245.72H1129.07Z" fill="#040D12" stroke="black" stroke-width="2" stroke-linecap="round" stroke-linejoin="round"/>
<path d="M1141.53 249.54C1139.43 252.771 1136.64 255.499 1133.36 257.529C1130.09 259.562 1126.41 260.848 1122.58 261.296C1118.75 261.746 1114.87 261.347 1111.21 260.13C1107.56 258.912 1104.21 256.904 1101.42 254.249L1063.97 218.719C1057.72 212.789 1049.43 209.482 1040.82 209.479H1072.09C1082.46 209.479 1092.55 212.837 1100.85 219.049L1141.55 249.52L1141.53 249.54Z" fill="#040D12" stroke="black" stroke-width="2" stroke-linecap="round" stroke-linejoin="round"/>
<path d="M1156.23 251.46C1154.31 254.831 1151.65 257.721 1148.45 259.909C1145.24 262.095 1141.58 263.52 1137.74 264.076C1133.9 264.631 1129.99 264.3 1126.3 263.11C1122.61 261.923 1119.23 259.905 1116.44 257.21L1081.7 223.72C1072.84 215.177 1061.01 210.402 1048.7 210.4H1087.21C1097.94 210.4 1108.36 213.994 1116.81 220.61L1156.23 251.46Z" fill="#040D12" stroke="black" stroke-width="2" stroke-linecap="round" stroke-linejoin="round"/>
<path d="M1166.82 252.72C1160.16 265.39 1143.24 268.19 1132.82 259.34L1094.59 223.14C1090.5 218.763 1085.54 215.283 1080.03 212.92C1074.52 210.557 1068.58 209.362 1062.59 209.41H1099.82C1111.62 209.392 1123.01 213.721 1131.82 221.57L1166.82 252.72Z" fill="#040D12" stroke="black" stroke-width="2" stroke-linecap="round" stroke-linejoin="round"/>
<path d="M1188.73 252.05C1180.66 267.67 1159.89 272.23 1147.08 260.19L1108.22 222.65C1098.87 213.865 1086.51 208.983 1073.68 209H1118.82C1129.88 209.001 1140.61 212.823 1149.18 219.82L1188.71 252.09L1188.73 252.05Z" fill="#040D12" stroke="black" stroke-width="2" stroke-linecap="round" stroke-linejoin="round"/>
<path d="M1217.4 253.8C1201.99 272.29 1179.07 273.67 1161.48 257.62L1126.54 225.72C1114.85 215.048 1099.59 209.131 1083.76 209.13H1137.09C1146.72 209.139 1156.13 212.044 1164.09 217.47L1217.36 253.78L1217.4 253.8Z" fill="#040D12" stroke="black" stroke-width="2" stroke-linecap="round" stroke-linejoin="round"/>
<path d="M1228.36 253.72C1210.5 272.16 1194.15 272.86 1175.42 255.3L1145.42 227.21C1132.98 215.55 1116.58 209.06 1099.53 209.06H1155.88C1164.84 209.065 1173.63 211.576 1181.24 216.31L1228.33 253.72H1228.36ZM717.27 265.07C716.039 267.478 714.17 269.501 711.866 270.918C709.562 272.334 706.913 273.089 704.208 273.101C701.504 273.112 698.849 272.379 696.533 270.982C694.217 269.585 692.331 267.578 691.08 265.18L676.62 237.52C675.824 235.994 674.625 234.715 673.153 233.822C671.68 232.93 669.992 232.459 668.27 232.46H678.88C682.897 232.463 686.86 233.38 690.47 235.14C694.08 236.9 697.243 239.458 699.72 242.62L717.27 265.07Z" fill="#040D12" stroke="black" stroke-width="2" stroke-linecap="round" stroke-linejoin="round"/>
<path d="M728.27 267.19C726.985 269.691 725.037 271.791 722.64 273.262C720.243 274.732 717.488 275.516 714.676 275.528C711.864 275.541 709.103 274.781 706.693 273.332C704.283 271.883 702.317 269.8 701.01 267.31L686.01 238.72C685.179 237.13 683.927 235.799 682.391 234.871C680.855 233.944 679.094 233.456 677.3 233.46H688.3C692.484 233.456 696.614 234.402 700.378 236.228C704.143 238.054 707.443 240.712 710.03 244L728.27 267.18V267.19Z" fill="#040D12" stroke="black" stroke-width="2" stroke-linecap="round" stroke-linejoin="round"/>
<path d="M747.27 269.9C745.089 273.031 742.129 275.538 738.681 277.173C735.234 278.808 731.419 279.514 727.615 279.222C723.811 278.929 720.149 277.647 716.993 275.503C713.837 273.359 711.295 270.428 709.62 267L696.82 240.65C695.771 238.491 694.135 236.672 692.099 235.4C690.063 234.128 687.71 233.456 685.31 233.46H697.31C701.92 233.462 706.483 234.387 710.731 236.18C714.978 237.973 718.823 240.598 722.04 243.9L747.33 269.9H747.27Z" fill="#040D12" stroke="black" stroke-width="2" stroke-linecap="round" stroke-linejoin="round"/>
<path d="M762.269 271.53C758.384 276.617 752.687 280.01 746.364 281.003C740.04 281.996 733.577 280.513 728.32 276.861C724.839 274.443 722.033 271.176 720.169 267.37L707.169 240.89C706.074 238.662 704.378 236.785 702.271 235.472C700.164 234.158 697.732 233.462 695.249 233.46H707.819C717.6 233.458 726.996 237.272 734.009 244.09L762.269 271.53Z" fill="#040D12" stroke="black" stroke-width="2" stroke-linecap="round" stroke-linejoin="round"/>
<path d="M775.27 272.889C772.585 276.372 769.053 279.11 765.012 280.843C760.97 282.577 756.552 283.247 752.178 282.792C747.804 282.337 743.619 280.771 740.021 278.243C736.423 275.715 733.531 272.309 731.62 268.349L718.9 241.999C717.662 239.436 715.726 237.273 713.316 235.759C710.905 234.245 708.117 233.441 705.27 233.439H718.38C728.594 233.427 738.417 237.369 745.789 244.439L775.27 272.819V272.889Z" fill="#040D12" stroke="black" stroke-width="2" stroke-linecap="round" stroke-linejoin="round"/>
<path d="M785.27 272.89C783.027 276.588 779.827 279.61 776.008 281.639C772.189 283.667 767.892 284.626 763.573 284.413C759.254 284.201 755.072 282.826 751.47 280.434C747.868 278.041 744.979 274.719 743.109 270.82L730.01 243.39C728.592 240.417 726.361 237.906 723.576 236.148C720.79 234.391 717.564 233.459 714.27 233.46H728.38C738.594 233.448 748.417 237.39 755.789 244.46L785.27 272.84V272.89Z" fill="#040D12" stroke="black" stroke-width="2" stroke-linecap="round" stroke-linejoin="round"/>
<path d="M798.269 273.88C795.911 277.689 792.573 280.795 788.604 282.872C784.635 284.949 780.18 285.922 775.706 285.688C771.233 285.454 766.904 284.022 763.173 281.542C759.442 279.062 756.446 275.624 754.499 271.59L741.499 244.46C737.239 236.75 732.349 233.46 726.239 233.46H739.699C750.221 233.461 760.335 237.527 767.929 244.81L798.239 273.88H798.269Z" fill="#040D12" stroke="black" stroke-width="2" stroke-linecap="round" stroke-linejoin="round"/>
<path d="M810.819 277.34C808.131 280.904 804.57 283.716 800.48 285.504C796.39 287.293 791.908 287.997 787.466 287.55C783.024 287.104 778.772 285.522 775.119 282.956C771.466 280.39 768.535 276.927 766.609 272.9L753.609 245.64C751.863 241.994 749.122 238.916 745.702 236.761C742.281 234.606 738.322 233.461 734.279 233.46H751.349C762.3 233.461 772.828 237.688 780.739 245.26L812.279 275.46L810.819 277.34Z" fill="#040D12" stroke="black" stroke-width="2" stroke-linecap="round" stroke-linejoin="round"/>
<path d="M822.269 275.46C811.479 293.46 784.879 291.67 776.559 272.46L765.029 245.8C763.329 241.847 760.51 238.478 756.919 236.108C753.328 233.738 749.122 232.47 744.819 232.46H758.079C770.43 232.448 782.31 237.197 791.249 245.72L822.319 275.42L822.269 275.46Z" fill="#040D12" stroke="black" stroke-width="2" stroke-linecap="round" stroke-linejoin="round"/>
<path d="M834.27 275.46C823.48 293.46 796.88 291.67 788.56 272.46L776.43 244.46C774.898 240.916 772.363 237.897 769.135 235.777C765.908 233.657 762.131 232.528 758.27 232.53H770.03C782.386 232.529 794.267 237.293 803.2 245.83L834.27 275.53V275.46Z" fill="#040D12" stroke="black" stroke-width="2" stroke-linecap="round" stroke-linejoin="round"/>
<path d="M2479.82 0V259.6L2191.08 259.75C2059.96 259.75 2055.53 300.18 1928.6 300.18C1854.18 300.18 1854.32 281.18 1825.11 265.04C1824.25 264.56 1823.35 264.04 1822.43 263.61C1820.57 262.65 1818.59 261.707 1816.48 260.78C1815.35 260.28 1814.24 259.78 1813.17 259.36L1811.02 258.49C1791.62 250.69 1780.57 251.97 1773.61 252.24C1747 253.24 1722.9 279.83 1668.27 289.04C1639.83 293.83 1603.05 292.82 1584.27 291.96C1569.35 291.26 1558.4 287.45 1549.48 282.08C1549.2 281.92 1548.93 281.75 1548.66 281.57C1547.79 281.05 1546.94 280.49 1546.11 279.92C1545.28 279.35 1544.37 278.7 1543.52 278.06L1541.4 276.43C1540.32 275.58 1539.27 274.7 1538.24 273.8L1537.36 273.03L1536.49 272.25L1535.9 271.7L1534.23 270.15L1532.16 268.15C1531.78 267.79 1531.41 267.42 1531.04 267.05L1530.77 266.78L1530.56 266.57L1529.04 265.05L1528.56 264.57L1527.07 263.06L1526.23 262.21L1525.83 261.79L1524.98 260.92C1524.5 260.42 1523.98 259.92 1523.52 259.44L1522.74 258.66L1522.65 258.56C1522.26 258.16 1521.89 257.78 1521.49 257.39C1521.09 257 1520.62 256.52 1520.18 256.1C1519.74 255.68 1519.28 255.22 1518.82 254.8C1518.37 254.37 1517.92 253.95 1517.46 253.54C1517 253.13 1516.63 252.79 1516.21 252.43L1515.54 251.85L1513.94 250.48C1513.28 249.93 1512.62 249.39 1511.94 248.86C1510.86 247.99 1509.76 247.15 1508.64 246.32L1508.35 246.11C1508.1 245.92 1507.85 245.73 1507.59 245.55L1507.35 245.39C1507 245.15 1506.65 244.91 1506.29 244.69L1506.19 244.62C1505.4 244.1 1504.59 243.62 1503.77 243.1L1502.77 242.52C1493.34 237.09 1481.62 233.52 1465.43 233.59C1449.06 233.67 1430.43 235.79 1396.43 249.09C1384.81 253.63 1340.63 271.2 1294.93 275.09C1267.16 277.49 1243.07 277.45 1216.06 265.65C1215.24 265.3 1214.4 264.92 1213.57 264.54C1212.92 264.24 1212.27 263.93 1211.63 263.61L1211.52 263.56C1205.31 260.56 1199.3 257.166 1193.52 253.4L1190.83 251.63C1189.04 250.43 1187.22 249.17 1185.39 247.86C1184.26 247.08 1183.17 246.21 1182.1 245.31L1181.93 245.16L1181.2 244.54C1180.95 244.32 1180.7 244.11 1180.45 243.88C1179.65 243.18 1178.85 242.46 1178.06 241.71L1177.75 241.42C1176.75 240.51 1175.75 239.57 1174.75 238.61C1174.06 237.95 1173.34 237.26 1172.59 236.61C1172.25 236.28 1171.9 235.96 1171.59 235.61C1171.28 235.26 1171.03 235.12 1170.59 234.78C1168.86 233.36 1165.83 231.01 1164.81 230.21V230.32C1147.62 217.97 1119.64 207.83 1065.81 214.64C985.81 224.77 946.18 288.64 838.95 288.64C821.95 288.64 811.15 284.33 802.95 275.4C800.701 272.951 798.692 270.292 796.95 267.46C795.422 264.982 794.027 262.425 792.77 259.8C791.96 258.15 791.16 256.43 790.39 254.64C790.02 253.78 789.63 252.94 789.22 252.11C788.356 250.27 787.353 248.498 786.22 246.81C785.94 246.38 785.65 245.95 785.34 245.53C785.27 245.23 785.19 244.93 785.11 244.63L784.39 243.72C775.28 232.72 759.09 228.97 724.12 247.34C671.2 275.15 607.58 300.06 560.62 300.06C532.05 300.06 509.75 296.8 492.09 292.43H492.04C490.17 291.97 488.34 291.5 486.57 291.01L485.49 290.7L485.17 290.61H484.82C483.04 290.12 481.31 289.61 479.64 289.1L477.97 288.59L475.97 287.91L475.33 287.69L468.97 285.52L467.56 285.04C466.76 284.74 465.99 284.45 465.21 284.14L464.87 284.01L462.16 283.01L460.01 282.18L459.14 281.84C457.84 281.32 456.6 280.84 455.37 280.27L453.25 279.37L452.58 279.09L449.58 277.8L447.65 276.97L447.08 276.74L443.68 275.45C442.62 275.06 441.37 274.61 439.96 274.12L437.57 273.3L433.85 272.09C424.233 268.956 414.363 266.657 404.35 265.22C372.87 261.22 335.73 260.45 286.55 260.4C158.81 260.4 0.47 260.58 0 260.4V0H2479.82Z" fill="#01111A"/>
<path d="M1824.25 264.559C1823.84 264.339 1803.1 252.639 1782.14 252.189C1771.48 251.959 1759.14 253.189 1740.82 264.019C1710.91 281.759 1679.88 288.559 1662.92 290.929C1637.56 294.479 1602.78 294.109 1584.28 291.929C1569.43 290.209 1558.4 287.409 1549.47 282.039C1548.31 281.349 1547.19 280.629 1546.1 279.879C1543.34 277.996 1540.71 275.945 1538.2 273.739C1537.61 273.229 1537.02 272.739 1536.45 272.189C1534.97 270.849 1533.53 269.479 1532.11 268.089C1531.64 267.639 1531.18 267.179 1530.72 266.719C1529.97 265.989 1529.24 265.239 1528.5 264.499L1527.01 262.989L1525.76 261.719C1524.76 260.659 1523.69 259.599 1522.64 258.569L1522.55 258.469C1522.16 258.069 1521.78 257.679 1521.38 257.299C1520.07 255.987 1518.73 254.697 1517.38 253.429C1516.97 253.049 1516.55 252.679 1516.13 252.319C1514.13 250.539 1512.06 248.839 1509.92 247.219C1509.47 246.879 1509.02 246.539 1508.56 246.219C1508.1 245.899 1507.86 245.699 1507.5 245.439C1507.07 244.809 1506.64 244.199 1506.28 243.729L1505.91 243.279L1505.67 242.989C1505.39 242.649 1505.11 242.319 1504.82 241.989C1504.03 241.059 1503.21 240.159 1502.36 239.289C1502.05 238.949 1501.72 238.629 1501.36 238.289C1500.51 237.449 1499.65 236.639 1498.76 235.849C1498.62 235.719 1498.23 235.259 1497.91 234.849C1497.71 234.629 1497.54 234.439 1497.46 234.369L1498.4 234.829L1499.07 235.159L1506.28 234.649C1527.19 232.239 1534.53 223.429 1550.63 223.239C1552.1 223.221 1553.56 223.278 1555.02 223.409H1555.48C1556.13 223.409 1556.78 223.529 1557.43 223.609H1557.62C1558.31 223.359 1559 223.119 1559.7 222.899L1559.87 222.849C1565.37 221.094 1571.1 220.193 1576.87 220.179C1578.64 220.171 1580.41 220.479 1582.07 221.089L1582.88 221.359L1583.34 221.229C1589.47 219.489 1598.66 217.979 1604.88 218.179C1607.15 218.259 1608.07 218.609 1611.66 219.089H1611.96L1613.14 218.829C1619.13 217.773 1625.2 217.208 1631.28 217.139C1632.68 217.189 1634.07 217.373 1635.43 217.689H1635.63L1636.72 217.549C1643.91 216.609 1652.29 214.919 1668.01 217.139H1668.33L1669.19 217.269C1677.06 216.599 1697.13 214.729 1708.01 218.799L1708.7 219.079L1709.91 219.139L1718.54 219.529C1724.82 219.829 1728.95 220.369 1734.54 222.969C1734.78 223.079 1734.99 223.199 1735.24 223.319L1736.62 223.429C1749.3 224.539 1759.12 227.939 1764.37 231.999C1764.49 232.079 1764.6 232.169 1764.71 232.259C1765.08 232.339 1764.45 232.419 1764.81 232.499C1770.27 233.76 1775.43 236.051 1780.03 239.249C1787.79 241.049 1795.33 245.169 1797.72 247.759C1801.72 248.489 1812.08 253.569 1817.02 257.839C1819.09 259.719 1822.66 262.579 1824.25 264.559Z" fill="#03131C"/>
<path d="M1507.2 245.279L1506.04 244.499C1496.04 237.919 1483.49 233.359 1465.28 233.499C1448.91 233.579 1430.28 235.699 1396.28 248.999C1384.66 253.539 1340.48 271.109 1294.78 274.999C1267 277.399 1242.9 277.359 1215.89 265.549C1215.07 265.199 1214.23 264.819 1213.4 264.439L1211.34 263.439C1205.13 260.441 1199.12 257.047 1193.34 253.279C1192.85 252.969 1192.34 252.649 1191.89 252.279L1190.64 251.449C1188.85 250.249 1187.03 248.989 1185.2 247.679C1184.07 246.899 1182.98 246.029 1181.91 245.129L1181.01 244.359C1180.76 244.139 1180.51 243.929 1180.26 243.699C1179.46 242.999 1178.66 242.279 1177.87 241.529L1177.56 241.239C1176.56 240.329 1175.56 239.389 1174.56 238.429C1173.87 237.769 1173.15 237.079 1172.4 236.429C1172.06 236.099 1171.71 235.779 1171.4 235.429C1171.09 235.079 1170.84 234.939 1170.4 234.599C1168.67 233.179 1165.64 230.829 1164.62 230.029L1164.2 229.339L1160.37 223.099L1159.95 222.409C1198.77 230.209 1246.79 228.889 1283.17 220.689C1314.31 213.689 1325.66 205.389 1347.44 208.189L1348.44 208.309L1348.91 208.169C1361.42 204.479 1368.56 203.589 1378.44 203.509C1383.66 203.544 1388.86 204.144 1393.95 205.299C1394.27 205.359 1394.6 205.429 1394.95 205.509L1395.42 205.429C1402.75 204.146 1410.18 203.593 1417.62 203.779C1425.91 203.799 1434.09 205.715 1441.53 209.379C1441.85 209.529 1442.18 209.689 1442.53 209.859H1443.08C1451.8 210.537 1460.28 213.063 1467.95 217.269C1468.37 217.499 1468.78 217.739 1469.18 217.979L1469.74 218.129C1483.93 221.839 1494.02 229.459 1496.97 233.369C1497.22 233.683 1497.43 234.017 1497.62 234.369L1498.1 234.769C1498.28 234.909 1498.46 235.049 1498.63 235.199C1501.43 237.535 1503.92 240.224 1506.03 243.199C1506.33 243.929 1506.82 244.599 1507.2 245.279Z" fill="#03131C"/>
<path d="M1164.55 230.169C1147.36 217.819 1119.38 207.679 1065.55 214.489C985.55 224.619 945.92 288.489 838.69 288.489C821.69 288.489 810.89 284.179 802.69 275.249C800.441 272.8 798.432 270.141 796.69 267.309C795.162 264.832 793.767 262.275 792.51 259.649C791.7 257.999 790.9 256.279 790.13 254.489C789.76 253.629 789.37 252.789 788.96 251.959C787.871 249.649 786.569 247.447 785.07 245.379C785 245.079 784.92 244.779 784.84 244.479C784.626 243.697 784.372 242.926 784.08 242.169L782.23 238.449C780.133 234.677 776.778 231.761 772.75 230.209C772.145 228.312 770.933 226.668 769.3 225.529L769.2 225.459C764.46 221.959 756.61 220.939 753.2 221.259H753.06C750.013 218.677 746.224 217.129 742.24 216.839H742.19C739.73 216.649 737.58 216.839 735.94 216.839C735.843 216.757 735.74 216.683 735.63 216.619C734.94 216.12 734.195 215.7 733.41 215.369C730.778 214.301 727.994 213.653 725.16 213.449C722.043 213.34 718.922 213.528 715.84 214.009L715.52 213.759C714.749 213.167 713.91 212.67 713.02 212.279L712.71 212.169C711.654 211.797 710.579 211.48 709.49 211.219L709.79 211.169C724.07 208.939 732.55 206.369 741.16 204.219C760.3 199.489 771.34 202.439 771.9 202.599C771.9 202.599 793.9 195.439 804.25 198.859C807.25 198.119 810.67 197.289 812.81 196.939C817.794 196.04 822.915 196.248 827.81 197.549C829.3 197.179 830.66 196.909 831.87 196.729C849.22 194.209 854.95 196.109 855.36 196.259C858.6 195.259 861.36 194.449 863.49 193.999C872.42 192.109 882.7 193.069 882.7 193.069C901.37 186.799 910.37 189.829 910.37 189.829C920.66 186.069 936.64 182.269 940.46 182.279C956.88 173.169 983.09 170.799 986.16 172.979C988.85 172.399 990.64 171.439 992.83 170.809C1010.93 165.599 1032.41 169.709 1033.24 169.869C1059.07 168.009 1082.6 173.699 1090.37 179.749C1103.71 182.829 1114.91 188.139 1122.46 195.049C1139.83 201.049 1148.65 210.119 1152.53 214.889C1155.47 217.278 1158.09 220.041 1160.31 223.109C1161.76 225.078 1163.04 227.166 1164.14 229.349L1164.55 230.169Z" fill="#03131C"/>
<path d="M785.271 245.059C785.131 244.859 784.981 244.669 784.841 244.479C775.841 232.749 759.761 228.299 723.841 247.179C670.921 274.989 607.301 299.899 560.341 299.899C528.711 299.899 504.761 295.899 486.291 290.839C483.381 290.049 480.601 289.229 477.951 288.399L467.481 284.829C464.791 283.829 462.251 282.829 459.861 281.909C457.471 280.989 455.191 279.999 453.061 279.099L447.401 276.699L445.151 275.759C444.381 275.449 443.611 275.129 442.831 274.829L441.231 274.219C439.331 273.495 437.411 272.828 435.471 272.219C437.821 272.359 440.281 272.429 442.831 272.449C467.381 272.649 500.391 267.569 528.471 258.959C562.081 248.649 591.671 229.799 607.221 222.379C619.701 216.379 633.301 211.679 638.761 214.739C651.091 210.319 662.391 209.229 667.841 212.739C678.761 209.739 687.371 209.469 691.841 212.179C698.991 210.369 705.021 209.969 709.841 211.179C710.841 211.426 711.819 211.761 712.761 212.179C713.738 212.613 714.667 213.15 715.531 213.779C722.991 212.519 728.951 213.039 733.421 215.389C734.145 215.757 734.838 216.186 735.491 216.669H735.641C737.827 216.455 740.03 216.516 742.201 216.849H742.251C745.959 217.319 749.452 218.851 752.311 221.259H753.231C759.231 221.359 765.011 222.599 769.231 225.459L769.331 225.529C771.135 226.746 772.64 228.356 773.731 230.239C779.881 233.229 783.571 238.549 785.271 245.059Z" fill="#03131C"/>
<path d="M1555.69 223.98C1555.68 224.045 1555.65 224.107 1555.62 224.162C1555.58 224.218 1555.53 224.265 1555.48 224.302C1555.43 224.34 1555.37 224.368 1555.3 224.383C1555.24 224.398 1555.17 224.4 1555.11 224.39C1552.77 224.026 1550.41 223.882 1548.04 223.96C1542.8 223.96 1537.41 225.96 1531.16 228.29C1522.88 231.36 1512.7 235.15 1498.74 235.86C1498.6 235.73 1498.21 235.27 1497.89 234.86H1498.38C1512.38 234.2 1522.54 230.42 1530.81 227.34C1537.15 224.99 1542.62 222.95 1548.02 222.95C1550.45 222.869 1552.87 223.02 1555.27 223.4C1555.34 223.41 1555.41 223.437 1555.46 223.48C1555.54 223.532 1555.61 223.606 1555.65 223.695C1555.69 223.784 1555.71 223.883 1555.69 223.98Z" fill="black"/>
<path d="M1502.3 239.29C1521.59 239.03 1533.65 233.69 1544.3 228.94C1548.56 226.955 1552.93 225.203 1557.38 223.69C1558.12 223.44 1558.88 223.21 1559.65 223L1559.82 222.95C1564.51 221.622 1569.36 220.949 1574.24 220.95C1576.53 220.984 1578.81 221.155 1581.08 221.46C1581.8 221.56 1582.53 221.66 1583.26 221.78C1583.39 221.8 1583.52 221.769 1583.63 221.692C1583.68 221.655 1583.73 221.607 1583.76 221.552C1583.8 221.496 1583.82 221.434 1583.83 221.37C1583.85 221.301 1583.85 221.229 1583.83 221.16C1583.8 221.069 1583.75 220.987 1583.68 220.921C1583.61 220.857 1583.52 220.812 1583.43 220.79H1583.34C1580.34 220.285 1577.3 220.007 1574.25 219.96C1567.73 219.976 1561.25 221.137 1555.13 223.39L1554.97 223.45C1554.34 223.67 1553.72 223.9 1553.1 224.14C1550 225.32 1546.98 226.66 1543.9 228.02C1533.13 232.8 1520.96 238.2 1501.31 238.3L1502.3 239.29Z" fill="black"/>
<path d="M1505.61 242.99H1506.47C1531.34 242.99 1548.47 235.74 1563.62 229.31C1576.18 223.98 1588.04 218.95 1602.28 218.95C1605 218.978 1607.71 219.172 1610.4 219.53C1611.18 219.62 1611.96 219.74 1612.74 219.87C1612.82 219.895 1612.91 219.895 1612.99 219.87C1613.07 219.839 1613.14 219.786 1613.2 219.717C1613.25 219.649 1613.29 219.567 1613.3 219.48C1613.32 219.384 1613.31 219.284 1613.27 219.195C1613.23 219.105 1613.16 219.03 1613.08 218.98C1613.03 218.939 1612.97 218.915 1612.9 218.91H1612.77C1602.96 217.214 1592.88 217.868 1583.37 220.82L1582.02 221.22L1581.14 221.5C1575.14 223.39 1569.26 225.89 1563.25 228.43C1547.83 234.97 1530.39 242.36 1504.78 242.02L1505.61 242.99Z" fill="black"/>
<path d="M1509.82 247.23H1510.13C1554.73 247.23 1575 237.04 1591.38 228.8C1598.6 225.17 1605.21 221.8 1612.95 219.86C1618.07 218.557 1623.33 217.912 1628.61 217.94C1630.46 217.895 1632.32 217.968 1634.16 218.16C1635.03 218.25 1635.86 218.37 1636.64 218.51C1636.77 218.531 1636.91 218.499 1637.01 218.423C1637.06 218.386 1637.11 218.338 1637.15 218.283C1637.18 218.227 1637.21 218.165 1637.22 218.1C1637.24 218.005 1637.22 217.908 1637.18 217.822C1637.14 217.734 1637.08 217.659 1637 217.61C1636.95 217.562 1636.88 217.53 1636.81 217.52H1636.82C1634.13 217.072 1631.4 216.881 1628.67 216.95C1623.32 216.917 1617.98 217.569 1612.79 218.89L1611.62 219.2L1610.42 219.55C1603.59 221.55 1597.55 224.63 1591 227.92C1574.52 236.21 1554.07 246.49 1508.53 246.23L1509.82 247.23Z" fill="black"/>
<path d="M1515.4 251.72C1520.71 252.637 1526.09 253.086 1531.48 253.06C1533.54 253.06 1535.59 253 1537.57 252.87C1548.98 252.06 1577.57 249.16 1596.03 239.6C1601.68 236.67 1606.4 233.68 1610.97 230.78C1623.42 222.87 1634.16 216.04 1656.25 216.92C1659.12 216.98 1661.99 217.231 1664.83 217.67C1665.71 217.81 1666.64 217.98 1667.67 218.18C1667.73 218.195 1667.8 218.196 1667.87 218.184C1667.93 218.171 1668 218.145 1668.05 218.107C1668.11 218.07 1668.15 218.022 1668.19 217.965C1668.23 217.909 1668.25 217.846 1668.26 217.78C1668.28 217.718 1668.28 217.654 1668.26 217.592C1668.25 217.529 1668.23 217.469 1668.19 217.418C1668.16 217.362 1668.11 217.316 1668.06 217.284C1668.01 217.248 1667.95 217.223 1667.89 217.21C1664.08 216.429 1660.21 216 1656.33 215.93C1649.79 215.581 1643.24 216.106 1636.84 217.49C1636.44 217.58 1636.04 217.67 1635.65 217.78L1634.29 218.14C1625.05 220.7 1618.08 225.14 1610.5 229.94C1605.96 232.83 1601.26 235.82 1595.64 238.72C1577.29 248.2 1548.92 251.08 1537.57 251.88C1529.64 252.419 1521.67 251.908 1513.87 250.36L1515.4 251.72Z" fill="black"/>
<path d="M1520.06 256.02C1528.86 257.838 1537.83 258.743 1546.82 258.72C1550.73 258.72 1554.9 258.56 1559.3 258.17C1585.49 255.85 1601.92 246.54 1617.82 237.55C1637.08 226.64 1657 215.36 1694.48 217.1C1698.65 217.168 1702.78 217.797 1706.78 218.97C1707.64 219.239 1708.48 219.556 1709.3 219.92C1709.33 219.924 1709.37 219.924 1709.4 219.92C1709.54 219.941 1709.68 219.907 1709.79 219.825C1709.86 219.776 1709.92 219.709 1709.95 219.63C1709.97 219.571 1709.99 219.509 1709.99 219.445C1709.99 219.381 1709.97 219.319 1709.95 219.26C1709.93 219.197 1709.89 219.139 1709.85 219.088C1709.81 219.037 1709.75 218.997 1709.69 218.97L1709.55 218.91C1704.75 216.81 1699.49 216.31 1694.55 216.07C1685.65 215.598 1676.72 215.976 1667.89 217.2C1666.89 217.34 1665.89 217.5 1664.89 217.67C1644.83 221.1 1630.89 228.96 1617.37 236.67C1601.57 245.67 1585.24 254.87 1559.26 257.17C1545.71 258.428 1532.04 257.595 1518.74 254.7L1520.06 256.02Z" fill="black"/>
<path d="M1524.89 260.87C1534.07 263.364 1543.55 264.592 1553.06 264.52C1592.76 263.69 1615.14 252.04 1636.78 240.77C1657.3 230.08 1676.78 219.96 1709.39 219.95H1709.56C1712.05 219.95 1714.61 220.01 1717.25 220.13C1721.81 220.35 1728.25 220.9 1734.12 223.13C1735 223.47 1735.87 223.83 1736.71 224.24H1736.93C1737.02 224.243 1737.12 224.218 1737.2 224.168C1737.28 224.118 1737.34 224.046 1737.38 223.96C1737.42 223.85 1737.42 223.73 1737.38 223.62C1737.36 223.55 1737.33 223.485 1737.29 223.425C1737.24 223.368 1737.19 223.322 1737.12 223.29H1737.02C1730.38 220.1 1722.57 219.4 1717.26 219.15C1714.6 219.02 1712.03 218.96 1709.52 218.96H1706.74C1675.45 219.48 1656.38 229.41 1636.3 239.87C1614.76 251.09 1592.49 262.68 1553.02 263.51C1543 263.603 1533.02 262.211 1523.41 259.38L1524.89 260.87Z" fill="black"/>
<path d="M1530.5 266.53C1537.78 268.543 1545.25 269.754 1552.79 270.14C1556.44 270.34 1559.96 270.44 1563.36 270.44C1601.6 270.44 1625.22 258.35 1648.13 246.64C1672.56 234.14 1695.64 222.33 1735 224.14C1735.61 224.14 1736.22 224.2 1736.82 224.25H1736.93C1746.39 225.006 1755.59 227.731 1763.93 232.25C1765.21 232.95 1766.11 233.5 1766.58 233.81H1766.7C1766.8 233.835 1766.91 233.828 1767 233.79C1767.1 233.752 1767.18 233.686 1767.23 233.6C1767.27 233.542 1767.29 233.479 1767.31 233.412C1767.32 233.345 1767.32 233.276 1767.3 233.21C1767.26 233.093 1767.18 232.991 1767.08 232.92L1766.99 232.86C1757.88 227.342 1747.61 224.04 1736.99 223.22C1736.33 223.22 1735.66 223.13 1734.99 223.1H1734.08C1695.01 221.49 1672 233.28 1647.63 245.75C1622.81 258.44 1597.14 271.57 1552.81 269.14C1544.72 268.731 1536.7 267.344 1528.94 265.01L1530.5 266.53Z" fill="black"/>
<path d="M1535.82 271.66C1546.06 274.437 1556.61 275.958 1567.22 276.19H1569.79C1615.79 276.19 1648.44 261.88 1677.35 249.19C1701.21 238.75 1721.83 229.73 1744.71 231.07C1754.5 231.64 1761.46 232.56 1766.71 233.8C1770.64 234.62 1774.39 236.116 1777.8 238.22C1778.48 238.65 1779.13 239.1 1779.74 239.57C1779.84 239.651 1779.98 239.686 1780.11 239.67C1780.24 239.653 1780.36 239.585 1780.44 239.48V239.42C1780.5 239.316 1780.53 239.192 1780.5 239.072C1780.48 238.952 1780.42 238.844 1780.32 238.77C1777.14 236.37 1773.32 234.38 1766.99 232.86C1766.32 232.7 1765.63 232.55 1764.9 232.4L1763.9 232.2C1757.58 231.086 1751.19 230.377 1744.77 230.08C1721.64 228.72 1700.93 237.79 1676.94 248.29C1648.13 260.9 1615.55 275.16 1569.78 275.16H1567.22C1556.02 274.895 1544.91 273.188 1534.15 270.08L1535.82 271.66Z" fill="black"/>
<path d="M1543.51 278.05C1554.04 280.9 1567.13 282.34 1582.6 282.34C1584.4 282.34 1586.24 282.34 1588.11 282.28C1629.18 281.42 1651.3 276.67 1682.77 261.92C1688.32 259.32 1693.33 256.79 1698.18 254.34C1715.36 245.66 1728.94 238.81 1748.74 237.92C1779.35 236.55 1788.96 242.01 1795.14 246.62L1796.64 247.77L1797.22 248.21C1797.26 248.243 1797.31 248.267 1797.36 248.28C1797.46 248.305 1797.56 248.302 1797.65 248.27C1797.73 248.242 1797.8 248.195 1797.85 248.134C1797.91 248.073 1797.95 248 1797.97 247.92C1798 247.825 1797.99 247.725 1797.96 247.632C1797.93 247.539 1797.87 247.457 1797.79 247.4L1797.68 247.32L1797.21 246.95C1792.33 242.898 1786.54 240.103 1780.33 238.81L1778.82 238.48L1777.82 238.28C1770.98 236.99 1761.71 236.34 1748.7 236.92C1728.7 237.82 1715.02 244.72 1697.7 253.44C1692.86 255.89 1687.85 258.44 1682.32 261.01C1650.99 275.69 1628.97 280.43 1588.06 281.28C1569 281.68 1553.32 280.04 1541.32 276.39L1543.51 278.05Z" fill="black"/>
<path d="M1825.11 265.04C1824.25 264.56 1823.35 264.04 1822.43 263.61C1815.65 256.319 1807.01 251.027 1797.43 248.31H1797.36C1788.55 245.824 1779.42 244.701 1770.27 244.98C1759.65 245.048 1749.12 246.831 1739.07 250.26C1729.95 253.37 1721.66 257.56 1712.77 262.06C1693.11 272 1671.07 283.15 1631.32 286.91C1627.56 287.257 1623.63 287.543 1619.53 287.77C1613.29 288.1 1607.22 288.25 1601.4 288.25C1580.58 288.25 1562.96 286.31 1552.15 283.59L1548.65 281.59C1561.08 285.59 1588.08 288.43 1619.47 286.77C1625.4 286.457 1630.98 285.997 1636.22 285.39C1672.67 281.21 1693.59 270.64 1712.32 261.17C1719.68 257.279 1727.24 253.777 1734.97 250.68C1746.23 246.329 1758.19 244.059 1770.26 243.98H1772.04C1779.82 243.895 1787.59 244.799 1795.14 246.67C1795.79 246.83 1796.41 247.01 1797.03 247.18L1797.71 247.38C1808.39 250.428 1817.92 256.574 1825.11 265.04ZM1508.2 246C1507.95 245.81 1507.7 245.62 1507.44 245.44L1507.2 245.28L1506.04 244.51C1503.6 240.894 1500.62 237.677 1497.2 234.97C1488.54 228.21 1476.98 224.97 1461.88 224.97H1461.33C1445.01 225.05 1426.5 225.14 1392.51 238.43C1386.42 240.79 1331.65 261.62 1285.88 266.43C1273.76 267.809 1261.58 268.553 1249.38 268.66C1238.15 268.785 1226.94 267.747 1215.92 265.56L1211.49 263.56L1211.38 263.51C1212.1 263.7 1212.81 263.87 1213.53 264.04C1236.95 269.63 1264.45 267.75 1285.8 265.48C1331.44 260.66 1386.09 239.87 1392.17 237.48C1426.33 224.13 1444.93 224.04 1461.35 223.96C1475.35 223.9 1486.42 226.6 1495.02 232.22C1495.63 232.62 1496.23 233.03 1496.82 233.46C1497.17 233.71 1497.5 233.97 1497.82 234.23L1497.97 234.35C1501.77 237.37 1505.03 241.007 1507.62 245.11L1508.2 246Z" fill="black"/>
<path d="M1193.32 253.25C1209.93 257.69 1228.95 259.97 1248.17 259.97C1257.83 259.975 1267.48 259.391 1277.07 258.22C1320.3 252.87 1375.6 233.69 1384.69 230.14C1419.1 216.72 1438.19 216.72 1453.52 216.72C1458.69 216.727 1463.84 217.362 1468.86 218.61H1468.96C1481.86 221.88 1490.96 228.18 1494.96 232.18C1495.74 232.912 1496.41 233.746 1496.96 234.66C1496.98 234.776 1497.04 234.881 1497.13 234.955C1497.22 235.029 1497.33 235.066 1497.45 235.06C1497.53 235.059 1497.61 235.037 1497.68 234.997C1497.76 234.957 1497.82 234.9 1497.86 234.83C1497.92 234.741 1497.95 234.637 1497.95 234.53C1497.97 234.461 1497.97 234.389 1497.95 234.32C1495.95 230.46 1484.77 221.62 1469.28 217.69H1469.19C1468.72 217.57 1468.25 217.46 1467.77 217.36C1467.14 217.21 1466.5 217.07 1465.85 216.95C1461.79 216.161 1457.67 215.759 1453.54 215.75C1438.12 215.75 1418.93 215.75 1384.36 229.28C1375.28 232.83 1320.1 251.97 1276.98 257.28C1248.13 260.86 1217.17 258.9 1191.98 251.92L1190.61 251.53L1193.32 253.25Z" fill="black"/>
<path d="M1181.9 245.16C1199.42 249.25 1220.05 251.27 1244.48 251.27C1252.06 251.27 1260.02 251.077 1268.35 250.69C1306.78 248.89 1350.99 231.36 1365.51 225.59L1368.01 224.59C1403.58 210.68 1422.17 209.83 1436.83 210.13C1438.76 210.13 1440.63 210.27 1442.38 210.42C1450.53 211.021 1458.49 213.209 1465.8 216.86C1466.8 217.39 1467.8 217.94 1468.8 218.52C1468.84 218.53 1468.87 218.53 1468.91 218.52C1469.01 218.546 1469.12 218.539 1469.22 218.499C1469.31 218.459 1469.4 218.39 1469.45 218.3C1469.49 218.237 1469.51 218.164 1469.51 218.09C1469.53 217.996 1469.51 217.899 1469.47 217.814C1469.43 217.729 1469.36 217.658 1469.28 217.61C1461.1 212.875 1451.96 210.067 1442.53 209.4H1442.45L1441.37 209.32L1439.82 209.21C1438.82 209.15 1437.82 209.11 1436.82 209.11C1422.09 208.81 1403.37 209.67 1367.63 223.63L1365.12 224.63C1350.63 230.37 1306.55 247.86 1268.29 249.63C1232.66 251.29 1204.13 249.41 1181.09 243.88L1180.23 243.67L1181.9 245.16Z" fill="black"/>
<path d="M1442.9 209.89C1442.93 209.981 1442.93 210.079 1442.9 210.17C1442.86 210.252 1442.8 210.321 1442.72 210.368C1442.64 210.415 1442.55 210.44 1442.46 210.44C1442.39 210.435 1442.32 210.415 1442.26 210.38C1441.49 209.98 1440.71 209.6 1439.91 209.25C1432.91 206.057 1425.31 204.391 1417.61 204.36C1410.06 204.178 1402.5 204.75 1395.06 206.07C1395.02 206.079 1394.97 206.079 1394.93 206.07C1382.07 208.37 1367.42 213.07 1348.84 220.79C1346.93 221.59 1301.59 240.28 1255.02 242.46C1249.52 242.72 1241.46 243 1232.3 243C1212.83 243 1188.3 241.74 1172.5 236.39C1172.16 236.06 1171.81 235.74 1171.5 235.39C1171.19 235.04 1170.94 234.9 1170.5 234.56L1171.68 235C1194.54 243.26 1237.57 242.24 1255.01 241.42C1301.4 239.25 1346.59 220.62 1348.49 219.83C1366.02 212.52 1380.08 207.93 1392.49 205.49C1393 205.39 1393.49 205.29 1394 205.21L1394.94 205.03H1395.01C1402.5 203.7 1410.11 203.12 1417.71 203.3C1426.41 203.333 1434.97 205.419 1442.71 209.39L1442.81 209.44C1442.86 209.501 1442.9 209.574 1442.91 209.653C1442.93 209.732 1442.93 209.813 1442.9 209.89Z" fill="black"/>
<path d="M1163.74 228.58C1165.02 228.92 1166.32 229.24 1167.61 229.58C1184.99 233.548 1202.78 235.491 1220.61 235.37C1260.09 235.37 1296.25 226.9 1315.7 220C1329.43 215.13 1340.27 211.38 1348.51 208.92C1361.76 204.98 1368.97 204.22 1378.37 204.14C1383.07 204.168 1387.76 204.657 1392.37 205.6C1393.17 205.76 1393.97 205.94 1394.77 206.13C1394.85 206.155 1394.94 206.155 1395.02 206.13C1395.1 206.103 1395.17 206.057 1395.23 205.996C1395.29 205.935 1395.33 205.861 1395.35 205.78C1395.38 205.651 1395.36 205.514 1395.29 205.401C1395.22 205.287 1395.11 205.205 1394.98 205.17H1394.88C1389.47 203.886 1383.94 203.215 1378.38 203.17C1368.91 203.25 1361.66 204 1348.38 207.94H1348.22C1347.54 208.14 1346.84 208.35 1346.12 208.58C1338.12 211.03 1327.97 214.58 1315.36 219.04C1287.45 228.94 1224.97 242.1 1167.87 228.58C1166.45 228.26 1165.02 227.9 1163.63 227.58C1163.56 227.559 1163.49 227.553 1163.42 227.564C1163.35 227.574 1163.29 227.6 1163.23 227.64L1163.74 228.58Z" fill="black"/>
<path d="M1160.29 223.08C1162.52 223.59 1164.98 224.08 1167.65 224.52C1181.04 226.76 1198.37 227.82 1215.94 227.82C1241.83 227.82 1268.23 225.51 1283.26 221.23C1288.26 219.8 1292.83 218.49 1296.94 217.32C1326.06 208.95 1333.32 206.86 1346.1 208.56C1346.8 208.64 1347.52 208.75 1348.26 208.86C1348.39 208.88 1348.52 208.849 1348.63 208.772C1348.68 208.735 1348.73 208.687 1348.76 208.632C1348.8 208.576 1348.82 208.514 1348.83 208.45C1348.84 208.386 1348.84 208.32 1348.83 208.256C1348.81 208.194 1348.78 208.134 1348.75 208.078C1348.71 208.024 1348.66 207.979 1348.6 207.946C1348.55 207.91 1348.48 207.888 1348.42 207.88H1348.36C1333.97 205.65 1327.52 207.49 1296.66 216.36C1292.56 217.54 1288.03 218.85 1282.98 220.28C1257.87 227.43 1200.82 229.05 1167.81 223.55C1164.97 223.08 1162.35 222.55 1160.02 221.99C1159.94 221.97 1159.86 221.972 1159.78 221.995C1159.7 222.018 1159.63 222.061 1159.57 222.12L1160.29 223.08ZM782.82 238.95C787.47 239.443 792.143 239.69 796.82 239.69C842.36 239.69 881.89 216.51 914.26 197.54C923.71 192 932.66 186.75 940.71 182.74C940.733 182.747 940.757 182.747 940.78 182.74C946.511 179.73 952.562 177.375 958.82 175.72C966.82 173.86 978.11 172.44 984.73 172.94C985.4 172.983 986.068 173.063 986.73 173.18C986.863 173.199 986.997 173.167 987.107 173.09C987.215 173.011 987.288 172.892 987.31 172.76C987.331 172.627 987.298 172.492 987.22 172.383C987.141 172.275 987.022 172.202 986.89 172.18H986.79C980.3 171.11 967.43 172.69 958.55 174.75C952.284 176.401 946.223 178.749 940.48 181.75L940.37 181.81C939.56 182.21 938.74 182.63 937.91 183.06C930.47 186.89 922.35 191.65 913.81 196.67C878.17 217.56 833.81 243.57 782.42 237.88H782.29L782.82 238.95Z" fill="black"/>
<path d="M778.28 233.26H780.82C836.82 233.26 864.82 216.26 887.47 202.54C895.87 197.45 903.11 193.06 910.65 190.29H910.73C919.579 187.251 928.632 184.838 937.82 183.07C938.682 182.887 939.559 182.787 940.44 182.77C940.512 182.79 940.588 182.79 940.66 182.77C940.683 182.777 940.707 182.777 940.73 182.77C940.799 182.73 940.858 182.675 940.903 182.61C940.948 182.544 940.978 182.469 940.99 182.39C941.002 182.258 940.963 182.127 940.881 182.023C940.799 181.919 940.681 181.85 940.55 181.83H940.38C937.7 181.83 920.67 185.63 910.38 189.36L910.22 189.42C909.7 189.61 909.17 189.81 908.65 190.02C901.58 192.83 894.71 197.02 886.83 201.77C863.83 215.7 835.22 233.03 777.19 232.32C777.134 232.309 777.076 232.309 777.02 232.32L778.28 233.26Z" fill="black"/>
<path d="M769.71 225.82C819.56 224.72 850.82 209.09 869.44 199.72C873.82 197.374 878.342 195.303 882.98 193.52C896.87 188.86 905.41 189.4 908.73 189.94C909.271 190.016 909.806 190.133 910.33 190.29C910.418 190.319 910.512 190.319 910.6 190.29C910.639 190.298 910.68 190.298 910.72 190.29C910.777 190.263 910.828 190.224 910.87 190.176C910.911 190.127 910.942 190.071 910.96 190.01C910.982 189.948 910.992 189.883 910.988 189.818C910.984 189.752 910.967 189.688 910.938 189.629C910.909 189.571 910.869 189.518 910.819 189.475C910.77 189.433 910.712 189.4 910.65 189.38L910.46 189.32C909.05 188.91 900.09 186.79 882.78 192.58H882.67C881.96 192.82 881.22 193.09 880.45 193.41C877.26 194.69 873.51 196.57 869.01 198.82C850.33 208.19 819.01 223.82 769.01 224.82C768.929 224.823 768.851 224.844 768.78 224.883C768.708 224.921 768.647 224.975 768.6 225.04L769.71 225.82Z" fill="black"/>
<path d="M761 222.12C784.6 221.26 816.25 210.26 839.52 202.12C845.72 199.97 851.06 198.12 855.52 196.68C858.4 195.79 861.38 194.9 863.6 194.43C869.125 193.411 874.751 193.055 880.36 193.37C881.78 193.43 882.63 193.51 882.66 193.51C882.791 193.516 882.92 193.474 883.022 193.391C883.123 193.308 883.19 193.19 883.21 193.06C883.222 192.928 883.181 192.796 883.097 192.693C883.013 192.59 882.892 192.525 882.76 192.51H882.82C881.89 192.43 872.04 191.66 863.53 193.46C861.3 193.93 858.36 194.81 855.53 195.69H855.39L853.66 196.25C849.52 197.6 844.74 199.25 839.31 201.15C815.53 209.41 782.96 220.73 759.31 221.09H759.18C759.047 221.09 758.92 221.143 758.826 221.236C758.733 221.33 758.68 221.457 758.68 221.59L761 222.12Z" fill="black"/>
<path d="M748.82 218.86C770.41 216.62 791.82 209.55 808.99 203.86C816.52 201.38 822.99 199.23 827.99 198.03H828.06C829.46 197.68 830.79 197.42 832 197.24C844.37 195.44 850.78 195.91 853.54 196.35C854.116 196.437 854.684 196.567 855.24 196.74C855.344 196.775 855.456 196.775 855.56 196.74C855.699 196.68 855.81 196.569 855.87 196.43C855.914 196.305 855.907 196.168 855.851 196.049C855.795 195.929 855.694 195.836 855.57 195.79L855.4 195.74C854.22 195.36 848.13 193.87 831.84 196.24C830.494 196.434 829.159 196.697 827.84 197.03H827.72L825.72 197.54C821.01 198.8 815.21 200.72 808.63 202.9C791.43 208.58 770.04 215.65 748.51 217.9C748.411 217.909 748.316 217.947 748.239 218.01C748.162 218.073 748.106 218.158 748.078 218.254C748.059 218.317 748.053 218.384 748.06 218.45C748.046 218.485 748.046 218.525 748.06 218.56L748.82 218.86Z" fill="black"/>
<path d="M739.82 216.57C753.73 213.67 770.13 208.99 784.74 204.82C797 201.32 807.59 198.29 813.04 197.42C817.267 196.661 821.6 196.708 825.81 197.56C826.48 197.69 827.15 197.84 827.81 198.02C827.905 198.044 828.005 198.04 828.098 198.008C828.19 197.976 828.271 197.917 828.331 197.84C828.391 197.762 828.427 197.669 828.435 197.571C828.442 197.474 828.421 197.376 828.374 197.29C828.342 197.233 828.298 197.183 828.246 197.144C828.194 197.104 828.134 197.076 828.07 197.06H827.91C822.995 195.779 817.859 195.581 812.86 196.48C810.86 196.79 808.29 197.38 805.18 198.16L802.6 198.83C797.44 200.18 791.19 201.97 784.45 203.9C768.57 208.43 750.56 213.58 735.98 216.36C735.892 216.374 735.81 216.412 735.743 216.47C735.675 216.529 735.626 216.605 735.6 216.69L739.82 216.57Z" fill="black"/>
<path d="M727.62 213.5C745.67 210.15 760.22 206.36 772.14 203.07C775.04 202.24 777.63 201.54 779.91 200.92L781.23 200.56C788.168 198.632 795.409 198.031 802.57 198.79C803.41 198.88 804.25 198.98 805.09 199.11C805.156 199.119 805.222 199.115 805.286 199.098C805.351 199.082 805.411 199.054 805.464 199.014C805.518 198.974 805.562 198.924 805.595 198.866C805.637 198.794 805.661 198.714 805.665 198.631C805.668 198.548 805.651 198.465 805.615 198.39C805.579 198.315 805.525 198.251 805.458 198.202C805.391 198.153 805.312 198.121 805.23 198.11H805.15C797.076 196.893 788.835 197.397 780.97 199.59L779.64 199.95C777.41 200.55 774.87 201.24 772.04 202.05H771.88L769.95 202.58C757.95 205.88 743.29 209.58 725.19 212.87C725.118 212.883 725.05 212.912 724.991 212.955C724.932 212.998 724.883 213.055 724.85 213.12L727.62 213.5Z" fill="black"/>
<path d="M772.49 202.72C772.452 202.847 772.366 202.953 772.25 203.017C772.134 203.081 771.997 203.096 771.87 203.06C771.234 202.889 770.59 202.752 769.94 202.65C766 201.97 756.16 201.04 741.39 204.65C739.72 205.06 738.04 205.5 736.33 205.95C727.946 208.233 719.448 210.072 710.87 211.46C710.52 211.35 710.17 211.25 709.81 211.16L709.13 210.99C709.16 210.907 709.212 210.833 709.281 210.776C709.35 210.72 709.432 210.683 709.52 210.67C718.471 209.263 727.338 207.363 736.08 204.98C737.8 204.53 739.47 204.1 741.15 203.68C759.82 199.06 770.79 201.68 772.04 202.03H772.15C772.222 202.047 772.289 202.079 772.346 202.125C772.403 202.171 772.45 202.229 772.482 202.295C772.514 202.361 772.532 202.433 772.533 202.507C772.535 202.58 772.52 202.653 772.49 202.72ZM1163.72 229.58C1160.95 224.078 1157.06 219.219 1152.29 215.32L1152.2 215.24C1134.04 200.54 1102.27 197.09 1057.78 204.99C1023.72 211.04 993.22 226.09 963.73 240.64C924.5 259.99 883.93 280 833.62 280H832.82C819.98 279.95 810.59 278.68 803.42 276L803.31 275.88L801.82 274.32C802.17 274.48 802.54 274.62 802.91 274.75C810.09 277.57 819.57 278.91 832.75 278.96H833.54C883.62 278.96 924.07 258.96 963.21 239.7C992.76 225.12 1023.32 210.05 1057.52 203.97C1099.32 196.54 1130.01 199.11 1148.88 211.59C1149.55 212.03 1150.2 212.48 1150.88 212.95C1151.55 213.43 1152.2 213.95 1152.88 214.45C1158 218.646 1162.14 223.913 1165.01 229.88C1165.14 230.14 1165.26 230.39 1165.37 230.64L1163.72 229.58Z" fill="black"/>
<path d="M797.04 267.86C803.82 269.86 812.21 270.78 823.4 270.86H824.18C874.56 270.86 913.39 250.41 950.95 230.63C979.22 215.74 1008.45 200.35 1042.35 193.85C1074.35 187.73 1101.19 188.29 1122.2 195.5H1122.29L1122.48 195.57C1133.16 199.29 1142.19 204.78 1148.89 211.57C1150.03 212.712 1151.11 213.914 1152.12 215.17L1152.21 215.25C1152.3 215.308 1152.4 215.338 1152.51 215.338C1152.61 215.338 1152.71 215.308 1152.8 215.25V215.2C1152.88 215.11 1152.92 214.994 1152.92 214.875C1152.92 214.756 1152.88 214.64 1152.8 214.55L1152.74 214.47C1145.74 205.86 1135.3 199 1122.63 194.61H1122.52L1121.36 194.23C1120.96 194.09 1120.56 193.96 1120.15 193.84C1099.32 187.28 1073.07 186.95 1042.06 192.89C1008.06 199.41 978.71 214.84 950.38 229.77C912.92 249.49 874.21 269.88 824.06 269.88H823.29C812.02 269.83 803.62 268.88 796.87 266.88C796.62 266.81 796.38 266.73 796.13 266.64L797.04 267.86Z" fill="black"/>
<path d="M1122.99 195.25C1122.97 195.314 1122.94 195.373 1122.89 195.42C1122.84 195.471 1122.79 195.512 1122.72 195.54C1122.66 195.567 1122.59 195.581 1122.52 195.58C1122.42 195.581 1122.32 195.546 1122.24 195.48H1122.19C1121.57 194.909 1120.93 194.355 1120.27 193.82C1112.88 187.82 1102.59 183.13 1090.33 180.3C1074.52 176.61 1056.79 176.3 1039.05 179.3C1003.29 185.42 969.75 203.86 937.31 221.68C898.22 243.16 861.31 263.46 821.38 263.46H820.67C809.13 263.38 799.75 262.3 792.79 260.22C792.69 260.04 792.61 259.86 792.52 259.68C792.43 259.5 792.3 259.22 792.18 258.99L792.81 259.18C799.71 261.28 809.08 262.39 820.67 262.46C860.59 262.65 897.62 242.35 936.83 220.81C969.34 202.94 1002.96 184.47 1038.89 178.32C1055.14 175.418 1071.78 175.564 1087.97 178.75L1089.33 179.04L1090.54 179.31H1090.66C1104.08 182.43 1115.17 187.71 1122.75 194.6L1122.86 194.7C1122.93 194.768 1122.99 194.857 1123.01 194.955C1123.03 195.053 1123.03 195.156 1122.99 195.25Z" fill="black"/>
<path d="M1090.82 179.88C1090.81 179.943 1090.78 180.001 1090.74 180.05C1090.7 180.101 1090.65 180.143 1090.59 180.175C1090.54 180.207 1090.47 180.227 1090.41 180.234C1090.28 180.249 1090.15 180.212 1090.04 180.13C1089.37 179.609 1088.66 179.138 1087.92 178.72C1078.46 173.22 1056.31 168.72 1033.26 170.36C1021.6 171.112 1010.12 173.613 999.21 177.78C971.36 188.68 948.64 202.04 926.67 214.96C891.52 235.62 861.17 253.46 821.28 254.04C818.5 254.04 815.7 254.11 812.92 254.11C804.16 254.11 795.69 253.8 789.2 252.46L788.96 251.96C788.86 251.75 788.76 251.53 788.64 251.32L789.21 251.44C797.69 253.22 809.69 253.21 821.26 253.04C860.89 252.47 891.13 234.69 926.16 214.1C948.16 201.16 970.93 187.78 998.85 176.84C1008.56 173.141 1018.71 170.743 1029.05 169.71C1029.72 169.64 1030.39 169.57 1031.05 169.52L1033.21 169.36C1053.21 167.92 1080.21 171.26 1090.6 179.36C1090.69 179.413 1090.75 179.492 1090.79 179.585C1090.83 179.678 1090.84 179.781 1090.82 179.88Z" fill="black"/>
<path d="M784.61 242.9C789.95 245.4 800.06 246.26 809.99 246.26C816.29 246.26 822.51 245.91 827.41 245.43C862.23 241.98 898.47 220.84 930.41 202.2C952.96 189.05 974.25 176.63 992.96 171.28C1006.38 167.42 1021.82 168.74 1029.04 169.71C1031.42 170.03 1032.91 170.31 1033.14 170.35H1033.23C1033.35 170.352 1033.46 170.313 1033.55 170.24C1033.64 170.167 1033.7 170.064 1033.72 169.95C1033.73 169.885 1033.73 169.818 1033.72 169.753C1033.71 169.687 1033.68 169.624 1033.64 169.571C1033.61 169.513 1033.56 169.466 1033.5 169.433C1033.45 169.395 1033.38 169.37 1033.32 169.36H1033.23C1031.46 169.02 1010.36 165.23 992.68 170.36C990.733 170.92 988.757 171.553 986.75 172.26L984.66 173.02C967.87 179.24 949.36 190.02 929.92 201.37C898.03 219.97 861.92 241.04 827.29 244.47C811.79 246.01 791.48 245.56 784.38 241.71C784.297 241.665 784.204 241.644 784.11 241.65L784.61 242.9Z" fill="black"/>
<path d="M785.951 246.629C785.671 246.199 785.381 245.769 785.071 245.349C785.001 245.049 784.921 244.749 784.841 244.449L784.121 243.539C783.563 241.822 782.805 240.178 781.861 238.639C779.847 235.319 776.925 232.644 773.441 230.929C773.378 230.891 773.311 230.861 773.241 230.839C763.611 226.169 746.581 226.389 716.531 240.439C713.151 242.019 709.261 243.899 705.131 245.889L698.731 248.979C677.321 259.269 651.731 270.979 623.951 280.299C597.781 289.019 560.001 293.879 524.951 293.879C513.891 293.914 502.836 293.376 491.831 292.269L485.281 290.539L484.911 290.439C527.551 296.139 586.961 291.519 623.551 279.309C651.241 270.059 676.831 258.309 698.211 248.039L704.621 244.949C708.741 242.949 712.621 241.079 716.031 239.499C745.031 225.959 762.101 225.159 772.201 229.279C772.761 229.499 773.291 229.739 773.801 229.999C777.474 231.791 780.554 234.603 782.671 238.099C783.406 239.311 784.038 240.582 784.561 241.899C784.963 242.97 785.297 244.066 785.561 245.179C785.741 245.659 785.861 246.139 785.951 246.629Z" fill="black"/>
<path d="M479.611 288.869C490.321 289.789 503.861 290.389 518.071 290.389C542.071 290.389 568.071 288.669 585.451 283.909C634.041 270.609 678.841 249.519 707.861 234.169C721.111 227.169 739.141 221.529 753.131 221.669H753.201C756.583 221.644 759.952 222.108 763.201 223.049C766.828 224.023 770.008 226.22 772.201 229.269C772.504 229.709 772.782 230.166 773.031 230.639C773.063 230.698 773.107 230.749 773.161 230.789C773.22 230.849 773.297 230.887 773.381 230.899C773.49 230.922 773.604 230.904 773.701 230.849C773.76 230.82 773.812 230.779 773.854 230.729C773.896 230.68 773.928 230.622 773.947 230.559C773.967 230.496 773.974 230.431 773.968 230.365C773.961 230.3 773.942 230.237 773.911 230.179L773.801 229.989C771.801 226.239 768.291 223.579 763.461 222.089C760.177 221.131 756.772 220.649 753.351 220.659H751.761C736.531 220.919 718.141 227.659 707.421 233.299C678.421 248.619 633.711 269.679 585.211 282.959C556.211 290.889 503.211 290.339 475.311 287.459L479.611 288.869Z" fill="black"/>
<path d="M468.881 285.269C481.084 286.462 493.34 287.026 505.601 286.959C531.161 286.959 560.811 284.819 580.101 278.669C621.551 265.479 655.611 249.149 683.021 236.059C688.511 233.439 693.691 230.959 698.671 228.629L700.891 227.629C713.941 221.569 726.421 217.899 736.051 217.319C741.051 217.029 745.201 217.549 748.411 218.859C749.593 219.325 750.709 219.944 751.731 220.699C752.113 220.976 752.48 221.273 752.831 221.589C752.914 221.67 753.025 221.717 753.141 221.719C753.24 221.713 753.335 221.68 753.416 221.623C753.497 221.566 753.561 221.488 753.6 221.397C753.626 221.336 753.639 221.271 753.639 221.205C753.639 221.138 753.626 221.073 753.6 221.012C753.575 220.951 753.538 220.896 753.491 220.849L753.321 220.699C751.976 219.524 750.441 218.588 748.781 217.929C745.471 216.569 741.221 216.029 736.151 216.309H735.991C735.471 216.309 734.941 216.379 734.401 216.439C724.881 217.289 712.911 220.919 700.401 226.709L698.181 227.709C693.181 230.039 688.011 232.529 682.521 235.149C655.141 248.259 621.061 264.569 579.771 277.739C548.031 287.879 487.901 287.059 464.781 283.759H464.731L468.881 285.269Z" fill="black"/>
<path d="M736.471 217.059C736.428 217.124 736.37 217.179 736.302 217.219C736.235 217.259 736.159 217.283 736.081 217.289C735.985 217.287 735.892 217.26 735.811 217.209C735.371 216.929 734.921 216.659 734.461 216.419C731.634 214.888 728.493 214.026 725.281 213.899C718.351 213.439 709.391 215.309 698.671 219.439C695.241 220.759 691.571 222.339 687.751 224.129C682.141 226.769 676.241 229.629 669.991 232.649C642.871 245.749 609.151 262.059 568.291 275.249C550.921 280.849 526.571 283.669 495.621 283.669C485.161 283.669 473.961 283.336 462.021 282.669L459.871 281.839L459.001 281.499C507.721 284.319 544.381 281.889 568.001 274.269C608.781 261.129 642.461 244.829 669.551 231.739C675.801 228.739 681.711 225.859 687.331 223.219C691.161 221.409 694.861 219.819 698.331 218.489C703.657 216.373 709.167 214.753 714.791 213.649L716.221 213.409C719.236 212.899 722.298 212.724 725.351 212.889C729.21 213.049 732.961 214.214 736.231 216.269L736.371 216.359C736.423 216.399 736.467 216.448 736.501 216.504C736.55 216.59 736.573 216.687 736.568 216.786C736.563 216.884 736.529 216.979 736.471 217.059Z" fill="black"/>
<path d="M455.171 279.959C461.581 280.339 468.451 280.529 475.531 280.529C502.901 280.529 533.531 277.609 554.531 270.809C593.801 258.059 626.131 242.309 652.111 229.659C657.891 226.849 663.341 224.199 668.541 221.729C676.009 218.074 683.803 215.128 691.821 212.929C694.038 212.353 696.285 211.899 698.551 211.569C702.196 210.972 705.915 210.999 709.551 211.649C711.399 212 713.17 212.677 714.781 213.649C715.051 213.809 715.321 213.979 715.581 214.159C715.634 214.197 715.695 214.224 715.759 214.238C715.823 214.252 715.889 214.252 715.953 214.24C716.018 214.228 716.079 214.204 716.134 214.167C716.188 214.131 716.235 214.084 716.271 214.029C716.338 213.936 716.369 213.822 716.358 213.708C716.347 213.594 716.295 213.487 716.211 213.409C716.193 213.381 716.169 213.357 716.141 213.339C714.206 211.999 712.007 211.088 709.691 210.669C705.956 209.998 702.135 209.971 698.391 210.589C696.161 210.908 693.951 211.352 691.771 211.919H691.571L690.331 212.269C682.681 214.433 675.241 217.281 668.101 220.779C662.891 223.249 657.441 225.899 651.671 228.709C625.671 241.349 593.421 257.079 554.221 269.799C527.141 278.639 483.761 280.919 452.381 278.779L455.171 279.959Z" fill="black"/>
<path d="M692.111 212.709C692.042 212.817 691.935 212.896 691.811 212.929C691.746 212.948 691.678 212.954 691.611 212.945C691.543 212.937 691.479 212.914 691.421 212.879C691.069 212.671 690.705 212.484 690.331 212.319C682.531 208.879 665.671 212.419 646.641 221.609C641.881 223.899 636.821 226.409 631.471 229.069C606.321 241.569 575.031 257.119 538.811 267.399C514.741 274.239 488.421 277.599 458.761 277.599C455.661 277.599 452.521 277.563 449.341 277.489L447.411 276.659L446.841 276.429C481.361 277.429 511.401 274.149 538.551 266.429C574.691 256.169 605.941 240.639 631.051 228.169C636.401 225.509 641.461 222.989 646.221 220.699C652.59 217.579 659.202 214.981 665.991 212.929L667.131 212.599C678.131 209.509 686.981 209.159 691.791 211.909L691.961 212.009C692.073 212.083 692.151 212.197 692.179 212.328C692.208 212.459 692.183 212.596 692.111 212.709Z" fill="black"/>
<path d="M667.051 213.059C667.016 213.114 666.97 213.162 666.916 213.199C666.862 213.237 666.801 213.263 666.737 213.277C666.673 213.291 666.607 213.292 666.542 213.28C666.478 213.269 666.416 213.244 666.361 213.209C666.235 213.128 666.105 213.055 665.971 212.989C660.841 209.989 651.051 210.989 639.271 215.339C639.235 215.331 639.197 215.331 639.161 215.339C636.471 216.339 633.671 217.539 630.811 218.899C625.591 221.379 619.401 224.689 612.231 228.529C590.141 240.339 559.881 256.529 525.881 265.529C501.531 271.959 475.011 275.529 454.101 275.529C450.341 275.529 446.761 275.409 443.421 275.179C442.361 274.789 441.111 274.339 439.701 273.849C461.551 276.059 495.251 272.509 525.551 264.519C559.451 255.579 589.641 239.429 611.691 227.639C618.861 223.809 625.071 220.489 630.311 217.999C632.811 216.809 635.251 215.749 637.611 214.829C638.071 214.649 638.531 214.469 638.981 214.309C651.421 209.659 661.521 208.869 666.851 212.309C666.954 212.377 667.029 212.48 667.061 212.599C667.098 212.67 667.116 212.75 667.115 212.83C667.113 212.911 667.091 212.989 667.051 213.059Z" fill="black"/>
<path d="M639.461 215.059C639.417 215.139 639.351 215.205 639.271 215.249C639.225 215.263 639.177 215.263 639.131 215.249C639.076 215.274 639.016 215.287 638.956 215.287C638.896 215.287 638.836 215.274 638.781 215.249C638.421 215.055 638.042 214.897 637.651 214.779C632.551 213.259 621.691 216.179 607.351 223.059C603.281 224.999 598.251 227.729 592.431 230.879C575.951 239.769 553.371 252.059 528.551 259.629C500.851 268.129 468.451 273.139 444.081 273.139C441.734 273.139 439.464 273.089 437.271 272.989L433.551 271.779C458.331 273.589 496.401 268.439 528.231 258.669C552.981 251.059 575.551 238.869 591.951 229.959C597.791 226.799 602.831 224.069 606.951 222.119C614.351 218.589 632.161 210.839 639.071 214.309L639.301 214.419C639.401 214.488 639.472 214.591 639.502 214.709C639.531 214.827 639.517 214.951 639.461 215.059Z" fill="black"/>
</svg>
