<svg width="105" height="119" viewBox="0 0 105 119" fill="none" xmlns="http://www.w3.org/2000/svg">
<path d="M67.3184 36.3258L3.96255 0.457915C3.16643 2.68846e-05 2.16486 0.0254651 1.39442 0.483353C0.598297 0.941241 0.110352 1.75526 0.110352 2.67104C0.110352 2.67104 0.136033 5.97801 0.161714 11.4218L46.3111 57.1343L67.3184 36.3258Z" fill="url(#paint0_linear_16_124)"/>
<path d="M0.161133 11.4219C0.238177 31.0602 0.469309 78.7314 0.572034 102.465L46.3362 57.1343L0.161133 11.4219Z" fill="url(#paint1_linear_16_124)"/>
<path d="M103.58 56.8543L67.3182 36.3257L46.2852 57.1341L70.0147 80.6391L103.606 61.2551C104.402 60.7972 104.89 59.9578 104.89 59.0674C104.89 58.1517 104.376 57.3122 103.58 56.8543V56.8543Z" fill="url(#paint2_linear_16_124)"/>
<path d="M0.546875 102.465C0.598238 110.936 0.623919 116.354 0.623919 116.354C0.623919 117.27 1.11186 118.11 1.90799 118.542C2.70411 119 3.68 119 4.47612 118.542L70.0406 80.6646L46.311 57.1597L0.546875 102.465Z" fill="url(#paint3_linear_16_124)"/>
<defs>
<linearGradient id="paint0_linear_16_124" x1="0.110352" y1="28.6419" x2="67.3302" y2="28.6419" gradientUnits="userSpaceOnUse">
<stop stop-color="#63BE6B"/>
<stop offset="0.506" stop-color="#5BBC6A"/>
<stop offset="1" stop-color="#4AB96A"/>
</linearGradient>
<linearGradient id="paint1_linear_16_124" x1="0.148806" y1="56.9545" x2="46.3095" y2="56.9545" gradientUnits="userSpaceOnUse">
<stop stop-color="#3EC6F2"/>
<stop offset="1" stop-color="#45AFE3"/>
</linearGradient>
<linearGradient id="paint2_linear_16_124" x1="46.3098" y1="58.4986" x2="104.884" y2="58.4986" gradientUnits="userSpaceOnUse">
<stop stop-color="#FAA51A"/>
<stop offset="0.387" stop-color="#FAB716"/>
<stop offset="0.741" stop-color="#FAC412"/>
<stop offset="1" stop-color="#FAC80F"/>
</linearGradient>
<linearGradient id="paint3_linear_16_124" x1="0.558175" y1="88.0216" x2="70.0395" y2="88.0216" gradientUnits="userSpaceOnUse">
<stop stop-color="#EC3B50"/>
<stop offset="1" stop-color="#E7515B"/>
</linearGradient>
</defs>
</svg>
