<svg width="105" height="85" viewBox="0 0 105 85" fill="none" xmlns="http://www.w3.org/2000/svg">
<g clip-path="url(#clip0_16_109)">
<path d="M66.626 23.4074H69.8301L78.9583 14.2251L79.4072 10.3291C62.4228 -4.75036 36.4952 -3.12553 21.5047 13.9595C17.3367 18.7056 14.3131 24.3504 12.667 30.4601C13.6837 30.0395 14.8104 29.9731 15.8711 30.2653L34.123 27.237C34.123 27.237 35.0516 25.6919 35.5314 25.7893C43.6516 16.8195 57.3174 15.7747 66.692 23.4074H66.626Z" fill="#EA4335"/>
<path d="M91.9587 30.4601C89.8594 22.6902 85.555 15.7039 79.5649 10.3601L66.7574 23.2436C72.1665 27.6886 75.2473 34.3871 75.1153 41.4133V43.7022C81.4134 43.7022 86.5144 48.8379 86.5144 55.1689C86.5144 61.5044 81.409 66.6357 75.1153 66.6357H52.3125L50.0371 68.9556V82.7113L52.3125 85.0002H75.1153C88.1869 85.102 99.7841 76.5794 103.666 64.0236C107.539 51.4633 102.786 37.8272 91.9587 30.4601Z" fill="#4285F4"/>
<path d="M29.4794 84.8716H52.2821V66.5115H29.4794C27.8553 66.5115 26.2489 66.1618 24.7701 65.48L21.566 66.4761L12.3762 75.6584L11.5752 78.8815C16.729 82.7952 23.0184 84.8982 29.4794 84.8716Z" fill="#34A853"/>
<path d="M29.4792 25.3066C16.8125 25.3818 5.5938 33.5414 1.55348 45.6146C-2.48685 57.6879 1.54027 71.0141 11.5795 78.7796L24.8051 65.4756C19.0659 62.8679 16.5176 56.0764 19.11 50.3032C21.7023 44.53 28.4538 41.9665 34.193 44.5742C36.7193 45.7253 38.7438 47.7619 39.8881 50.3032L53.1138 36.9991C47.4847 29.6011 38.7394 25.2756 29.4792 25.3066Z" fill="#FBBC05"/>
</g>
<defs>
<clipPath id="clip0_16_109">
<rect width="105" height="85" fill="white"/>
</clipPath>
</defs>
</svg>
