<svg width="105" height="105" viewBox="0 0 105 105" fill="none" xmlns="http://www.w3.org/2000/svg">
<g clip-path="url(#clip0_16_115)">
<path d="M52.5208 0.0217285C52.8081 0.186175 53.0544 0.432845 53.2801 0.679515C61.7561 9.21018 70.2526 17.7408 78.7078 26.2921C73.3718 31.5543 68.118 36.8989 62.8233 42.1817C60.8325 44.1962 58.8006 46.1695 56.8306 48.2251C55.3529 44.6484 53.9368 41.0511 52.5208 37.4539C52.5208 33.7127 52.5413 29.9715 52.5208 26.2098C52.5002 17.4942 52.4797 8.75795 52.5208 0.0217285V0.0217285Z" fill="#DD4B39" stroke="#DD4B39" stroke-width="0.459323"/>
<path d="M26.2305 26.2097H52.5204C52.5409 29.9714 52.5204 33.7126 52.5204 37.4538C51.0632 40.9894 49.6471 44.5455 48.2516 48.1222C47.8001 47.8756 47.4717 47.5056 47.1228 47.1355L26.3126 26.2919L26.2305 26.2097Z" fill="#EF851C" stroke="#EF851C" stroke-width="0.459323"/>
<path d="M78.7075 26.2921L78.7896 26.2305C78.7691 34.9872 78.7691 43.7646 78.7896 52.5214H67.4815C63.9515 51.0413 60.3803 49.6847 56.8301 48.2252C58.8003 46.1696 60.8321 44.1962 62.8228 42.1818C68.1179 36.8989 73.3716 31.5544 78.7075 26.2921V26.2921Z" fill="#7E3794" stroke="#7E3794" stroke-width="0.459323"/>
<path d="M21.9419 30.6293C23.4196 29.2109 24.7946 27.6898 26.3133 26.292L47.1235 47.1356C47.4724 47.5056 47.8008 47.8756 48.2523 48.1223C47.7803 48.4717 47.1851 48.5951 46.6515 48.8417C43.6139 50.0751 40.5355 51.2262 37.5188 52.5418C33.7629 52.5007 30.0072 52.5212 26.2517 52.5212C17.509 52.5007 8.7662 52.5623 0.0234375 52.5007C7.30907 45.1828 14.6358 37.906 21.9419 30.6293V30.6293Z" fill="#FFBB1B" stroke="#FFBB1B" stroke-width="0.459323"/>
<path d="M26.2512 52.5213C30.0069 52.5213 33.7626 52.5007 37.5183 52.5418C41.0688 54.0013 44.6192 55.3785 48.1695 56.8174C42.3412 62.7375 36.4511 68.5753 30.6021 74.4749C29.1244 75.8727 27.7905 77.4143 26.2307 78.7299C26.2307 69.9937 26.2102 61.2575 26.2512 52.5213Z" fill="#1A8763" stroke="#1A8763" stroke-width="0.459323"/>
<path d="M67.4815 52.5212H78.7897C87.5119 52.5418 96.2547 52.5007 104.977 52.5418C99.3742 58.2358 93.6893 63.8681 88.0663 69.5209C84.9468 72.6248 81.8683 75.7697 78.7488 78.8327C71.771 71.7615 64.6906 64.7725 57.6923 57.7013C57.405 57.393 57.0971 57.1257 56.748 56.9202C57.3432 56.55 58.0001 56.3652 58.6362 56.098C61.5915 54.9057 64.5466 53.7546 67.4815 52.5212V52.5212Z" fill="#427FED" stroke="#427FED" stroke-width="0.459323"/>
<path d="M48.1695 56.8174C49.6676 60.3939 51.0222 64.0119 52.5203 67.5884C52.4998 71.3296 52.5203 75.0913 52.4998 78.8325V96.9216C52.4588 99.6144 52.5614 102.307 52.4588 104.98C52.0276 104.774 51.761 104.383 51.4119 104.055C43.0182 95.6063 34.6449 87.1578 26.2305 78.7299C27.7902 77.4143 29.1242 75.8727 30.6018 74.4749C36.4509 68.5753 42.341 62.7375 48.1695 56.8174Z" fill="#65B045" stroke="#65B045" stroke-width="0.459323"/>
<path d="M56.7478 56.9202C57.0967 57.1257 57.4046 57.393 57.6921 57.7013C64.6904 64.7725 71.7708 71.7615 78.7486 78.8327C69.9853 78.8121 61.2426 78.8532 52.5 78.8327C52.5205 75.0915 52.5 71.3298 52.5205 67.5886C53.8954 64.0325 55.373 60.4969 56.7478 56.9202V56.9202Z" fill="#43459D" stroke="#43459D" stroke-width="0.459323"/>
</g>
<defs>
<clipPath id="clip0_16_115">
<rect width="105" height="105" fill="white"/>
</clipPath>
</defs>
</svg>
