<svg width="105" height="105" viewBox="0 0 105 105" fill="none" xmlns="http://www.w3.org/2000/svg">
<g clip-path="url(#clip0_16_87)">
<path d="M60.6382 5.84851C57.2967 4.79434 53.7165 4.21753 50.017 4.21753C39.2167 4.21753 29.5502 9.09058 23.0859 16.7681L39.6941 30.7309L60.6382 5.84851Z" fill="#1A73E8"/>
<path d="M23.086 16.7681C17.7614 23.0923 14.8446 31.0958 14.8516 39.3631C14.8516 45.9666 16.1643 51.3369 18.3323 56.1303L39.6942 30.7308L23.086 16.7681Z" fill="#EA4335"/>
<path d="M50.0179 25.9374C52.5818 25.9398 55.0917 26.6747 57.2519 28.0557C59.4121 29.4367 61.1328 31.4062 62.2112 33.7323C63.2896 36.0584 63.6809 38.6442 63.3389 41.1853C62.997 43.7263 61.936 46.1167 60.2811 48.075L81.2054 23.1926C76.9104 14.9178 69.506 8.68667 60.6192 5.86841L39.7148 30.7508C40.9744 29.2424 42.5502 28.0293 44.3307 27.1975C46.1111 26.3657 48.0527 25.9355 50.0179 25.9374" fill="#4285F4"/>
<path d="M50.0178 52.8286C42.5988 52.8286 36.5721 46.8019 36.5721 39.383C36.5634 36.224 37.6772 33.1647 39.7147 30.7507L18.333 56.1502C21.9928 64.2455 28.0592 70.7495 34.3047 78.9441L60.281 48.0749C59.019 49.566 57.4468 50.7639 55.6742 51.5849C53.9016 52.4059 51.9713 52.8304 50.0178 52.8286Z" fill="#FBBC04"/>
<path d="M59.7635 87.3575C71.4986 69.0189 85.163 60.685 85.163 39.3629C85.163 33.5153 83.731 28.0057 81.2049 23.1526L34.3242 78.944C36.3132 81.5496 38.3221 84.3143 40.2713 87.3774C47.3919 98.3964 45.4228 105 50.0174 105C54.612 105 52.6429 98.3765 59.7635 87.3575Z" fill="#34A853"/>
</g>
<defs>
<clipPath id="clip0_16_87">
<rect width="105" height="105" fill="white"/>
</clipPath>
</defs>
</svg>
