<svg width="105" height="105" viewBox="0 0 105 105" fill="none" xmlns="http://www.w3.org/2000/svg">
<g clip-path="url(#clip0_16_93)">
<path d="M96.5029 0H77.3834C72.7588 0 68.9625 3.79934 68.9625 8.42763V33.1579H41.284C36.7974 33.1579 33.1392 36.8191 33.1392 41.3783V69.079H8.22163C3.66607 69.079 0.0078125 72.7402 0.0078125 77.2994V96.6415C0.0078125 101.201 3.66607 104.862 8.22163 105H96.572C101.197 105 104.993 101.201 104.993 96.5724V8.42763C104.924 3.79934 101.128 0 96.5029 0Z" fill="url(#paint0_linear_16_93)"/>
<path d="M96.5029 0H77.3834C72.7588 0 68.9625 3.79934 68.9625 8.42763V33.1579H41.284C36.7974 33.1579 33.1392 36.8191 33.1392 41.3783V69.079H8.22163C3.66607 69.079 0.0078125 72.7402 0.0078125 77.2994V96.6415C0.0078125 101.201 3.66607 104.862 8.22163 105H96.572C101.197 105 104.993 101.201 104.993 96.5724V8.42763C104.924 3.79934 101.128 0 96.5029 0Z" fill="url(#paint1_linear_16_93)"/>
<path d="M96.503 0H77.5215C72.8969 0 69.1006 3.79934 69.1006 8.42763V105H96.503C101.128 105 104.924 101.201 104.924 96.5724V8.42763C104.924 3.79934 101.128 0 96.503 0Z" fill="#F57C00"/>
<path d="M33.1392 41.4474V69.079H8.29065C3.73509 69.079 0.0078125 72.8093 0.0078125 77.3685V96.7106C0.0078125 101.27 3.73509 105 8.29065 105H69.0315V33.158H41.422C36.8665 33.158 33.1392 36.8882 33.1392 41.4474Z" fill="#FFC107"/>
<path d="M69.0312 33.158V105H96.4337C101.058 105 104.855 101.201 104.855 96.5724V69.079L69.0312 33.158Z" fill="url(#paint2_linear_16_93)"/>
<path opacity="0.2" d="M41.4215 33.8487H69.031V33.158H41.4215C36.866 33.158 33.1387 36.8882 33.1387 41.4474V42.1382C33.1387 37.579 36.866 33.8487 41.4215 33.8487Z" fill="white"/>
<path opacity="0.2" d="M8.29065 69.7696H33.1392V69.0789H8.29065C3.73509 69.0789 0.0078125 72.8091 0.0078125 77.3683V78.0591C0.0078125 73.4999 3.73509 69.7696 8.29065 69.7696Z" fill="white"/>
<path opacity="0.2" d="M96.503 0H77.5215C72.8969 0 69.1006 3.79934 69.1006 8.42763V9.11842C69.1006 4.49013 72.8969 0.69079 77.5215 0.69079H96.503C101.128 0.69079 104.924 4.49013 104.924 9.11842V8.42763C104.924 3.79934 101.128 0 96.503 0Z" fill="white"/>
<path opacity="0.2" d="M96.5029 104.309H8.29065C3.73509 104.309 0.0078125 100.579 0.0078125 96.0197V96.7105C0.0078125 101.27 3.73509 105 8.29065 105H96.4339C101.058 105 104.855 101.201 104.855 96.5724V95.8816C104.924 100.51 101.127 104.309 96.5029 104.309V104.309Z" fill="#BF360C"/>
<path d="M96.5029 0H77.5214C72.8968 0 69.1005 3.79934 69.1005 8.42763V33.1579H41.4911C36.9355 33.1579 33.2082 36.8882 33.2082 41.4474V69.079H8.29066C3.73509 69.079 0.0078125 72.8092 0.0078125 77.3684V96.7105C0.0078125 101.27 3.73509 105 8.29066 105H96.5029C101.128 105 104.924 101.201 104.924 96.5724V8.42763C104.924 3.79934 101.128 0 96.5029 0Z" fill="url(#paint3_linear_16_93)"/>
</g>
<defs>
<linearGradient id="paint0_linear_16_93" x1="0.0078125" y1="52.5" x2="104.993" y2="52.5" gradientUnits="userSpaceOnUse">
<stop stop-color="white" stop-opacity="0.1"/>
<stop offset="1" stop-color="white" stop-opacity="0"/>
</linearGradient>
<linearGradient id="paint1_linear_16_93" x1="0.0078125" y1="52.5" x2="104.993" y2="52.5" gradientUnits="userSpaceOnUse">
<stop stop-color="white" stop-opacity="0.1"/>
<stop offset="1" stop-color="white" stop-opacity="0"/>
</linearGradient>
<linearGradient id="paint2_linear_16_93" x1="51.2577" y1="51.2912" x2="102.452" y2="102.445" gradientUnits="userSpaceOnUse">
<stop stop-color="#BF360C" stop-opacity="0.2"/>
<stop offset="1" stop-color="#BF360C" stop-opacity="0.02"/>
</linearGradient>
<linearGradient id="paint3_linear_16_93" x1="35.1885" y1="35.2517" x2="103.111" y2="103.12" gradientUnits="userSpaceOnUse">
<stop stop-color="white" stop-opacity="0.1"/>
<stop offset="1" stop-color="white" stop-opacity="0"/>
</linearGradient>
<clipPath id="clip0_16_93">
<rect width="105" height="105" fill="white"/>
</clipPath>
</defs>
</svg>
