<svg width="276" height="90" viewBox="0 0 276 90" fill="none" xmlns="http://www.w3.org/2000/svg">
<g clip-path="url(#clip0_4_90)">
<path d="M33.9906 0.00794983H36.445C44.9658 0.193007 53.3477 3.61657 59.3678 9.67719C57.145 11.9441 54.8758 14.1186 52.6993 16.3855C49.3188 13.3321 45.2436 10.9726 40.798 10.1398C34.2221 8.75191 27.1369 10.001 21.6262 13.7485C15.606 17.6809 11.5309 24.343 10.651 31.4677C9.67852 38.4999 11.6698 45.9021 16.2544 51.3613C20.6537 56.6817 27.3685 60.0128 34.3148 60.2441C40.798 60.6142 47.5591 58.6248 52.2826 54.0909C55.9873 50.8987 57.7007 46.0409 58.2564 41.322C50.5691 41.322 42.8819 41.3682 35.1946 41.322V31.7915H67.5644C69.2315 42.0159 66.8235 53.5358 59.0436 60.8455C53.857 66.0271 46.6792 69.0806 39.3624 69.682C32.2772 70.376 24.9604 69.0343 18.6624 65.6107C11.1141 61.5858 5.09395 54.7849 2.13019 46.7812C-0.648333 39.4251 -0.694641 31.0976 1.89865 23.6953C4.26039 16.9407 8.79865 10.9726 14.6336 6.8088C20.2369 2.69128 27.0443 0.424329 33.9906 0.00794983Z" fill="white"/>
<path d="M219.689 2.4137H229.599V68.4791C226.311 68.4791 222.977 68.5254 219.689 68.4329C219.735 46.4573 219.689 24.4355 219.689 2.4137Z" fill="white"/>
<path d="M89.6074 25.3145C95.7201 24.1579 102.342 25.4533 107.39 29.1082C111.974 32.3467 115.17 37.4358 116.142 42.9875C117.393 49.4183 115.818 56.4504 111.65 61.5395C107.158 67.23 99.7953 70.2835 92.6174 69.8208C86.0416 69.4507 79.651 66.1659 75.7611 60.7993C71.3617 54.8774 70.2966 46.7349 72.7047 39.7953C75.1127 32.3467 81.9201 26.6562 89.6074 25.3145ZM90.9966 34.1048C88.496 34.7525 86.1805 36.1867 84.5134 38.2223C80.0215 43.589 80.2993 52.3329 85.2544 57.3295C88.0792 60.1978 92.3396 61.5395 96.2758 60.753C99.9342 60.1053 103.13 57.6533 104.889 54.4148C107.946 48.9093 107.066 41.322 102.389 37.0194C99.3785 34.2436 94.9792 33.0869 90.9966 34.1048Z" fill="white"/>
<path d="M138.695 25.3145C145.687 23.9729 153.328 25.916 158.561 30.82C167.082 38.4536 168.008 52.7493 160.738 61.5395C156.338 67.0912 149.207 70.1446 142.168 69.8208C135.453 69.6357 128.831 66.3047 124.848 60.7993C120.356 54.7386 119.384 46.4111 121.931 39.3326C124.478 32.1154 131.146 26.6099 138.695 25.3145ZM140.084 34.1047C137.583 34.7524 135.268 36.1866 133.601 38.176C129.155 43.4501 129.34 52.0553 134.11 57.0981C136.935 60.1053 141.334 61.5858 145.409 60.753C149.021 60.059 152.263 57.6533 154.023 54.4148C157.033 48.8631 156.153 41.2757 151.43 36.9731C148.419 34.1973 144.02 33.0869 140.084 34.1047Z" fill="white"/>
<path d="M180.326 27.9979C185.652 24.6668 192.737 23.7415 198.479 26.6099C200.285 27.3964 201.767 28.7381 203.203 30.0798C203.249 28.8306 203.203 27.5352 203.249 26.2398C206.352 26.2861 209.454 26.2398 212.603 26.2861V67.0912C212.557 73.2444 210.983 79.7676 206.537 84.2553C201.675 89.2056 194.219 90.7323 187.504 89.7145C180.326 88.6504 174.075 83.4225 171.296 76.8067C174.075 75.4651 176.992 74.401 179.863 73.1519C181.484 76.9455 184.772 80.184 188.893 80.9243C193.015 81.6645 197.785 80.6467 200.47 77.2231C203.342 73.707 203.342 68.8955 203.203 64.5929C201.072 66.6748 198.618 68.5254 195.654 69.2194C189.217 71.0237 182.132 68.803 177.177 64.4542C172.176 60.1053 169.212 53.397 169.49 46.7349C169.629 39.1938 173.889 31.9303 180.326 27.9979ZM189.912 33.9197C187.087 34.3823 184.448 35.9553 182.642 38.1298C178.289 43.3114 178.289 51.5927 182.688 56.6817C185.189 59.6889 189.217 61.3544 193.107 60.9381C196.766 60.568 200.146 58.2547 201.952 55.0625C205.009 49.6496 204.499 42.2935 200.378 37.5746C197.831 34.6599 193.756 33.2257 189.912 33.9197Z" fill="white"/>
<path d="M241.5 30.3573C247.057 25.1757 255.624 23.4177 262.756 26.1473C269.517 28.6918 273.824 35.1226 276 41.7384C265.951 45.9021 255.948 50.0197 245.899 54.1834C247.289 56.8205 249.419 59.2263 252.29 60.1978C256.319 61.632 261.135 61.1231 264.515 58.4398C265.858 57.4219 266.924 56.0803 267.942 54.7849C270.489 56.4967 273.036 58.1622 275.583 59.874C271.971 65.2869 265.905 69.0806 259.375 69.682C252.151 70.561 244.464 67.7852 239.787 62.1409C232.099 53.2582 232.84 38.3611 241.5 30.3573ZM246.455 38.9162C244.881 41.1832 244.232 43.959 244.279 46.6886C250.993 43.9128 257.708 41.1369 264.423 38.3148C263.311 35.724 260.626 34.151 257.893 33.7346C253.494 32.9481 248.909 35.3076 246.455 38.9162Z" fill="white"/>
</g>
<defs>
<clipPath id="clip0_4_90">
<rect width="276" height="90" fill="white"/>
</clipPath>
</defs>
</svg>
